<mxfile host="65bd71144e">
    <diagram id="P_5H0lzGQw27C4O0SpJU" name="Page-1">
        <mxGraphModel dx="2064" dy="1675" grid="1" gridSize="10" guides="1" tooltips="1" connect="1" arrows="1" fold="1" page="1" pageScale="1" pageWidth="850" pageHeight="1100" math="0" shadow="0">
            <root>
                <mxCell id="0"/>
                <mxCell id="1" parent="0"/>
                <mxCell id="3" value="UsersELA" style="swimlane;fontStyle=0;childLayout=stackLayout;horizontal=1;startSize=26;fillColor=#ffcd28;horizontalStack=0;resizeParent=1;resizeParentMax=0;resizeLast=0;collapsible=1;marginBottom=0;strokeColor=#d79b00;gradientColor=#ffa500;" parent="1" vertex="1">
                    <mxGeometry x="320" y="296" width="240" height="286" as="geometry"/>
                </mxCell>
                <mxCell id="4" value="UserElaID" style="text;strokeColor=#36393d;fillColor=#ffcc99;align=left;verticalAlign=top;spacingLeft=4;spacingRight=4;overflow=hidden;rotatable=0;points=[[0,0.5],[1,0.5]];portConstraint=eastwest;fontColor=#000000;" parent="3" vertex="1">
                    <mxGeometry y="26" width="240" height="26" as="geometry"/>
                </mxCell>
                <mxCell id="5" value="UserName" style="text;strokeColor=#36393d;fillColor=#ffcc99;align=left;verticalAlign=top;spacingLeft=4;spacingRight=4;overflow=hidden;rotatable=0;points=[[0,0.5],[1,0.5]];portConstraint=eastwest;fontColor=#000000;" parent="3" vertex="1">
                    <mxGeometry y="52" width="240" height="26" as="geometry"/>
                </mxCell>
                <mxCell id="6" value="LastName" style="text;strokeColor=#36393d;fillColor=#ffcc99;align=left;verticalAlign=top;spacingLeft=4;spacingRight=4;overflow=hidden;rotatable=0;points=[[0,0.5],[1,0.5]];portConstraint=eastwest;fontColor=#000000;" parent="3" vertex="1">
                    <mxGeometry y="78" width="240" height="26" as="geometry"/>
                </mxCell>
                <mxCell id="9" value="UserSexID" style="text;strokeColor=#36393d;fillColor=#ffcc99;align=left;verticalAlign=top;spacingLeft=4;spacingRight=4;overflow=hidden;rotatable=0;points=[[0,0.5],[1,0.5]];portConstraint=eastwest;fontColor=#000000;" parent="3" vertex="1">
                    <mxGeometry y="104" width="240" height="26" as="geometry"/>
                </mxCell>
                <mxCell id="10" value="DateOfBirth" style="text;strokeColor=#36393d;fillColor=#ffcc99;align=left;verticalAlign=top;spacingLeft=4;spacingRight=4;overflow=hidden;rotatable=0;points=[[0,0.5],[1,0.5]];portConstraint=eastwest;fontColor=#000000;" parent="3" vertex="1">
                    <mxGeometry y="130" width="240" height="26" as="geometry"/>
                </mxCell>
                <mxCell id="11" value="NationalityID" style="text;strokeColor=#36393d;fillColor=#ffcc99;align=left;verticalAlign=top;spacingLeft=4;spacingRight=4;overflow=hidden;rotatable=0;points=[[0,0.5],[1,0.5]];portConstraint=eastwest;fontColor=#000000;" parent="3" vertex="1">
                    <mxGeometry y="156" width="240" height="26" as="geometry"/>
                </mxCell>
                <mxCell id="12" value="IdentityCard" style="text;strokeColor=#36393d;fillColor=#ffcc99;align=left;verticalAlign=top;spacingLeft=4;spacingRight=4;overflow=hidden;rotatable=0;points=[[0,0.5],[1,0.5]];portConstraint=eastwest;fontColor=#000000;" parent="3" vertex="1">
                    <mxGeometry y="182" width="240" height="26" as="geometry"/>
                </mxCell>
                <mxCell id="209" value="UserNickName" style="text;strokeColor=#36393d;fillColor=#ffcc99;align=left;verticalAlign=top;spacingLeft=4;spacingRight=4;overflow=hidden;rotatable=0;points=[[0,0.5],[1,0.5]];portConstraint=eastwest;fontColor=#000000;" parent="3" vertex="1">
                    <mxGeometry y="208" width="240" height="26" as="geometry"/>
                </mxCell>
                <mxCell id="210" value="Password" style="text;strokeColor=#36393d;fillColor=#ffcc99;align=left;verticalAlign=top;spacingLeft=4;spacingRight=4;overflow=hidden;rotatable=0;points=[[0,0.5],[1,0.5]];portConstraint=eastwest;fontColor=#000000;" parent="3" vertex="1">
                    <mxGeometry y="234" width="240" height="26" as="geometry"/>
                </mxCell>
                <mxCell id="13" value="Photo" style="text;strokeColor=#36393d;fillColor=#ffcc99;align=left;verticalAlign=top;spacingLeft=4;spacingRight=4;overflow=hidden;rotatable=0;points=[[0,0.5],[1,0.5]];portConstraint=eastwest;fontColor=#000000;" parent="3" vertex="1">
                    <mxGeometry y="260" width="240" height="26" as="geometry"/>
                </mxCell>
                <mxCell id="26" value="Phone" style="swimlane;fontStyle=0;childLayout=stackLayout;horizontal=1;startSize=26;fillColor=#f8cecc;horizontalStack=0;resizeParent=1;resizeParentMax=0;resizeLast=0;collapsible=1;marginBottom=0;strokeColor=#b85450;gradientColor=#ea6b66;" parent="1" vertex="1">
                    <mxGeometry x="40" y="123" width="240" height="130" as="geometry"/>
                </mxCell>
                <mxCell id="27" value="PhoneID" style="text;strokeColor=#36393d;fillColor=#ffcc99;align=left;verticalAlign=top;spacingLeft=4;spacingRight=4;overflow=hidden;rotatable=0;points=[[0,0.5],[1,0.5]];portConstraint=eastwest;fontColor=#000000;" parent="26" vertex="1">
                    <mxGeometry y="26" width="240" height="26" as="geometry"/>
                </mxCell>
                <mxCell id="28" value="PhoneUserElaID" style="text;strokeColor=#36393d;fillColor=#ffcc99;align=left;verticalAlign=top;spacingLeft=4;spacingRight=4;overflow=hidden;rotatable=0;points=[[0,0.5],[1,0.5]];portConstraint=eastwest;fontColor=#000000;" parent="26" vertex="1">
                    <mxGeometry y="52" width="240" height="26" as="geometry"/>
                </mxCell>
                <mxCell id="29" value="PhoneNumber" style="text;strokeColor=#36393d;fillColor=#ffcc99;align=left;verticalAlign=top;spacingLeft=4;spacingRight=4;overflow=hidden;rotatable=0;points=[[0,0.5],[1,0.5]];portConstraint=eastwest;fontColor=#000000;" parent="26" vertex="1">
                    <mxGeometry y="78" width="240" height="26" as="geometry"/>
                </mxCell>
                <mxCell id="598" value="PhoneContactTypeID" style="text;strokeColor=#36393d;fillColor=#ffcc99;align=left;verticalAlign=top;spacingLeft=4;spacingRight=4;overflow=hidden;rotatable=0;points=[[0,0.5],[1,0.5]];portConstraint=eastwest;fontColor=#000000;" vertex="1" parent="26">
                    <mxGeometry y="104" width="240" height="26" as="geometry"/>
                </mxCell>
                <mxCell id="32" style="edgeStyle=orthogonalEdgeStyle;html=1;entryX=1;entryY=0.5;entryDx=0;entryDy=0;fontColor=#000000;" parent="1" source="4" target="28" edge="1">
                    <mxGeometry relative="1" as="geometry"/>
                </mxCell>
                <mxCell id="33" value="Mobile" style="swimlane;fontStyle=0;childLayout=stackLayout;horizontal=1;startSize=26;fillColor=#f8cecc;horizontalStack=0;resizeParent=1;resizeParentMax=0;resizeLast=0;collapsible=1;marginBottom=0;strokeColor=#b85450;gradientColor=#ea6b66;" parent="1" vertex="1">
                    <mxGeometry x="40" y="270" width="240" height="130" as="geometry"/>
                </mxCell>
                <mxCell id="34" value="MobileID" style="text;strokeColor=#36393d;fillColor=#ffcc99;align=left;verticalAlign=top;spacingLeft=4;spacingRight=4;overflow=hidden;rotatable=0;points=[[0,0.5],[1,0.5]];portConstraint=eastwest;fontColor=#000000;" parent="33" vertex="1">
                    <mxGeometry y="26" width="240" height="26" as="geometry"/>
                </mxCell>
                <mxCell id="35" value="MobileUserElaID" style="text;strokeColor=#36393d;fillColor=#ffcc99;align=left;verticalAlign=top;spacingLeft=4;spacingRight=4;overflow=hidden;rotatable=0;points=[[0,0.5],[1,0.5]];portConstraint=eastwest;fontColor=#000000;" parent="33" vertex="1">
                    <mxGeometry y="52" width="240" height="26" as="geometry"/>
                </mxCell>
                <mxCell id="36" value="MobileNumber" style="text;strokeColor=#36393d;fillColor=#ffcc99;align=left;verticalAlign=top;spacingLeft=4;spacingRight=4;overflow=hidden;rotatable=0;points=[[0,0.5],[1,0.5]];portConstraint=eastwest;fontColor=#000000;" parent="33" vertex="1">
                    <mxGeometry y="78" width="240" height="26" as="geometry"/>
                </mxCell>
                <mxCell id="597" value="MobileContactTypeID" style="text;strokeColor=#36393d;fillColor=#ffcc99;align=left;verticalAlign=top;spacingLeft=4;spacingRight=4;overflow=hidden;rotatable=0;points=[[0,0.5],[1,0.5]];portConstraint=eastwest;fontColor=#000000;" vertex="1" parent="33">
                    <mxGeometry y="104" width="240" height="26" as="geometry"/>
                </mxCell>
                <mxCell id="39" style="edgeStyle=orthogonalEdgeStyle;html=1;entryX=1;entryY=0.5;entryDx=0;entryDy=0;fontColor=#000000;" parent="1" source="4" target="35" edge="1">
                    <mxGeometry relative="1" as="geometry"/>
                </mxCell>
                <mxCell id="46" value="InternationalPhone" style="swimlane;fontStyle=0;childLayout=stackLayout;horizontal=1;startSize=26;fillColor=#f8cecc;horizontalStack=0;resizeParent=1;resizeParentMax=0;resizeLast=0;collapsible=1;marginBottom=0;strokeColor=#b85450;gradientColor=#ea6b66;" parent="1" vertex="1">
                    <mxGeometry x="40" y="417" width="240" height="156" as="geometry"/>
                </mxCell>
                <mxCell id="47" value="InternationPhoneID" style="text;strokeColor=#36393d;fillColor=#ffcc99;align=left;verticalAlign=top;spacingLeft=4;spacingRight=4;overflow=hidden;rotatable=0;points=[[0,0.5],[1,0.5]];portConstraint=eastwest;fontColor=#000000;" parent="46" vertex="1">
                    <mxGeometry y="26" width="240" height="26" as="geometry"/>
                </mxCell>
                <mxCell id="48" value="InternationPhoneUserElaID" style="text;strokeColor=#36393d;fillColor=#ffcc99;align=left;verticalAlign=top;spacingLeft=4;spacingRight=4;overflow=hidden;rotatable=0;points=[[0,0.5],[1,0.5]];portConstraint=eastwest;fontColor=#000000;" parent="46" vertex="1">
                    <mxGeometry y="52" width="240" height="26" as="geometry"/>
                </mxCell>
                <mxCell id="100" value="InternationalPhoneCountryPrefixID" style="text;strokeColor=#36393d;fillColor=#ffcc99;align=left;verticalAlign=top;spacingLeft=4;spacingRight=4;overflow=hidden;rotatable=0;points=[[0,0.5],[1,0.5]];portConstraint=eastwest;fontColor=#000000;" parent="46" vertex="1">
                    <mxGeometry y="78" width="240" height="26" as="geometry"/>
                </mxCell>
                <mxCell id="49" value="InternationPhoneNumber" style="text;strokeColor=#36393d;fillColor=#ffcc99;align=left;verticalAlign=top;spacingLeft=4;spacingRight=4;overflow=hidden;rotatable=0;points=[[0,0.5],[1,0.5]];portConstraint=eastwest;fontColor=#000000;" parent="46" vertex="1">
                    <mxGeometry y="104" width="240" height="26" as="geometry"/>
                </mxCell>
                <mxCell id="596" value="InternationPhoneContactTypeID" style="text;strokeColor=#36393d;fillColor=#ffcc99;align=left;verticalAlign=top;spacingLeft=4;spacingRight=4;overflow=hidden;rotatable=0;points=[[0,0.5],[1,0.5]];portConstraint=eastwest;fontColor=#000000;" vertex="1" parent="46">
                    <mxGeometry y="130" width="240" height="26" as="geometry"/>
                </mxCell>
                <mxCell id="52" style="edgeStyle=orthogonalEdgeStyle;html=1;entryX=1;entryY=0.5;entryDx=0;entryDy=0;fontColor=#000000;" parent="1" source="4" target="48" edge="1">
                    <mxGeometry relative="1" as="geometry"/>
                </mxCell>
                <mxCell id="53" value="Email" style="swimlane;fontStyle=0;childLayout=stackLayout;horizontal=1;startSize=26;fillColor=#f8cecc;horizontalStack=0;resizeParent=1;resizeParentMax=0;resizeLast=0;collapsible=1;marginBottom=0;strokeColor=#b85450;gradientColor=#ea6b66;" parent="1" vertex="1">
                    <mxGeometry x="40" y="586" width="240" height="130" as="geometry"/>
                </mxCell>
                <mxCell id="54" value="EmailID" style="text;strokeColor=#36393d;fillColor=#ffcc99;align=left;verticalAlign=top;spacingLeft=4;spacingRight=4;overflow=hidden;rotatable=0;points=[[0,0.5],[1,0.5]];portConstraint=eastwest;fontColor=#000000;" parent="53" vertex="1">
                    <mxGeometry y="26" width="240" height="26" as="geometry"/>
                </mxCell>
                <mxCell id="55" value="EmailUserElaID" style="text;strokeColor=#36393d;fillColor=#ffcc99;align=left;verticalAlign=top;spacingLeft=4;spacingRight=4;overflow=hidden;rotatable=0;points=[[0,0.5],[1,0.5]];portConstraint=eastwest;fontColor=#000000;" parent="53" vertex="1">
                    <mxGeometry y="52" width="240" height="26" as="geometry"/>
                </mxCell>
                <mxCell id="56" value="Email" style="text;strokeColor=#36393d;fillColor=#ffcc99;align=left;verticalAlign=top;spacingLeft=4;spacingRight=4;overflow=hidden;rotatable=0;points=[[0,0.5],[1,0.5]];portConstraint=eastwest;fontColor=#000000;" parent="53" vertex="1">
                    <mxGeometry y="78" width="240" height="26" as="geometry"/>
                </mxCell>
                <mxCell id="595" value="EmailContactTypeID" style="text;strokeColor=#36393d;fillColor=#ffcc99;align=left;verticalAlign=top;spacingLeft=4;spacingRight=4;overflow=hidden;rotatable=0;points=[[0,0.5],[1,0.5]];portConstraint=eastwest;fontColor=#000000;" vertex="1" parent="53">
                    <mxGeometry y="104" width="240" height="26" as="geometry"/>
                </mxCell>
                <mxCell id="59" style="edgeStyle=orthogonalEdgeStyle;html=1;entryX=1;entryY=0.5;entryDx=0;entryDy=0;fontColor=#000000;" parent="1" source="4" target="55" edge="1">
                    <mxGeometry relative="1" as="geometry"/>
                </mxCell>
                <mxCell id="62" value="PhoneComment" style="swimlane;fontStyle=0;childLayout=stackLayout;horizontal=1;startSize=26;fillColor=#f8cecc;horizontalStack=0;resizeParent=1;resizeParentMax=0;resizeLast=0;collapsible=1;marginBottom=0;strokeColor=#b85450;gradientColor=#ea6b66;" parent="1" vertex="1">
                    <mxGeometry x="-282" y="63" width="280" height="156" as="geometry"/>
                </mxCell>
                <mxCell id="63" value="PhoneCommentID" style="text;strokeColor=#36393d;fillColor=#ffcc99;align=left;verticalAlign=top;spacingLeft=4;spacingRight=4;overflow=hidden;rotatable=0;points=[[0,0.5],[1,0.5]];portConstraint=eastwest;fontColor=#000000;" parent="62" vertex="1">
                    <mxGeometry y="26" width="280" height="26" as="geometry"/>
                </mxCell>
                <mxCell id="65" value="PhonePhoneCommentID" style="text;strokeColor=#36393d;fillColor=#ffcc99;align=left;verticalAlign=top;spacingLeft=4;spacingRight=4;overflow=hidden;rotatable=0;points=[[0,0.5],[1,0.5]];portConstraint=eastwest;fontColor=#000000;" parent="62" vertex="1">
                    <mxGeometry y="52" width="280" height="26" as="geometry"/>
                </mxCell>
                <mxCell id="447" value="UserCommentID" style="text;strokeColor=#36393d;fillColor=#ffcc99;align=left;verticalAlign=top;spacingLeft=4;spacingRight=4;overflow=hidden;rotatable=0;points=[[0,0.5],[1,0.5]];portConstraint=eastwest;fontColor=#000000;" parent="62" vertex="1">
                    <mxGeometry y="78" width="280" height="26" as="geometry"/>
                </mxCell>
                <mxCell id="67" value="Comment" style="text;strokeColor=#36393d;fillColor=#ffcc99;align=left;verticalAlign=top;spacingLeft=4;spacingRight=4;overflow=hidden;rotatable=0;points=[[0,0.5],[1,0.5]];portConstraint=eastwest;fontColor=#000000;" parent="62" vertex="1">
                    <mxGeometry y="104" width="280" height="26" as="geometry"/>
                </mxCell>
                <mxCell id="532" value="UpdateTime" style="text;strokeColor=#36393d;fillColor=#ffcc99;align=left;verticalAlign=top;spacingLeft=4;spacingRight=4;overflow=hidden;rotatable=0;points=[[0,0.5],[1,0.5]];portConstraint=eastwest;fontColor=#000000;" vertex="1" parent="62">
                    <mxGeometry y="130" width="280" height="26" as="geometry"/>
                </mxCell>
                <mxCell id="70" value="MobileComment" style="swimlane;fontStyle=0;childLayout=stackLayout;horizontal=1;startSize=26;fillColor=#f8cecc;horizontalStack=0;resizeParent=1;resizeParentMax=0;resizeLast=0;collapsible=1;marginBottom=0;strokeColor=#b85450;gradientColor=#ea6b66;" parent="1" vertex="1">
                    <mxGeometry x="-282" y="233" width="281" height="156" as="geometry"/>
                </mxCell>
                <mxCell id="71" value="MobileCommentID" style="text;strokeColor=#36393d;fillColor=#ffcc99;align=left;verticalAlign=top;spacingLeft=4;spacingRight=4;overflow=hidden;rotatable=0;points=[[0,0.5],[1,0.5]];portConstraint=eastwest;fontColor=#000000;" parent="70" vertex="1">
                    <mxGeometry y="26" width="281" height="26" as="geometry"/>
                </mxCell>
                <mxCell id="72" value="MobileMobileCommentID" style="text;strokeColor=#36393d;fillColor=#ffcc99;align=left;verticalAlign=top;spacingLeft=4;spacingRight=4;overflow=hidden;rotatable=0;points=[[0,0.5],[1,0.5]];portConstraint=eastwest;fontColor=#000000;" parent="70" vertex="1">
                    <mxGeometry y="52" width="281" height="26" as="geometry"/>
                </mxCell>
                <mxCell id="448" value="UserCommentID" style="text;strokeColor=#36393d;fillColor=#ffcc99;align=left;verticalAlign=top;spacingLeft=4;spacingRight=4;overflow=hidden;rotatable=0;points=[[0,0.5],[1,0.5]];portConstraint=eastwest;fontColor=#000000;" parent="70" vertex="1">
                    <mxGeometry y="78" width="281" height="26" as="geometry"/>
                </mxCell>
                <mxCell id="73" value="Comment" style="text;strokeColor=#36393d;fillColor=#ffcc99;align=left;verticalAlign=top;spacingLeft=4;spacingRight=4;overflow=hidden;rotatable=0;points=[[0,0.5],[1,0.5]];portConstraint=eastwest;fontColor=#000000;" parent="70" vertex="1">
                    <mxGeometry y="104" width="281" height="26" as="geometry"/>
                </mxCell>
                <mxCell id="426" value="UpdateTime" style="text;strokeColor=#36393d;fillColor=#ffcc99;align=left;verticalAlign=top;spacingLeft=4;spacingRight=4;overflow=hidden;rotatable=0;points=[[0,0.5],[1,0.5]];portConstraint=eastwest;fontColor=#000000;" parent="70" vertex="1">
                    <mxGeometry y="130" width="281" height="26" as="geometry"/>
                </mxCell>
                <mxCell id="75" style="edgeStyle=orthogonalEdgeStyle;html=1;entryX=1;entryY=0.5;entryDx=0;entryDy=0;fontColor=#000000;" parent="1" source="34" target="72" edge="1">
                    <mxGeometry relative="1" as="geometry">
                        <Array as="points">
                            <mxPoint x="30" y="309"/>
                            <mxPoint x="30" y="298"/>
                        </Array>
                    </mxGeometry>
                </mxCell>
                <mxCell id="81" style="edgeStyle=orthogonalEdgeStyle;html=1;entryX=1;entryY=0.5;entryDx=0;entryDy=0;fontColor=#000000;" parent="1" source="47" target="84" edge="1">
                    <mxGeometry relative="1" as="geometry">
                        <mxPoint x="-50" y="479" as="targetPoint"/>
                        <Array as="points">
                            <mxPoint x="30" y="456"/>
                            <mxPoint x="30" y="469"/>
                        </Array>
                    </mxGeometry>
                </mxCell>
                <mxCell id="82" value="InternationalPhoneComment" style="swimlane;fontStyle=0;childLayout=stackLayout;horizontal=1;startSize=26;fillColor=#f8cecc;horizontalStack=0;resizeParent=1;resizeParentMax=0;resizeLast=0;collapsible=1;marginBottom=0;strokeColor=#b85450;gradientColor=#ea6b66;" parent="1" vertex="1">
                    <mxGeometry x="-282" y="403" width="280" height="160" as="geometry"/>
                </mxCell>
                <mxCell id="83" value="InternationalPhoneCommentID" style="text;strokeColor=#36393d;fillColor=#ffcc99;align=left;verticalAlign=top;spacingLeft=4;spacingRight=4;overflow=hidden;rotatable=0;points=[[0,0.5],[1,0.5]];portConstraint=eastwest;fontColor=#000000;" parent="82" vertex="1">
                    <mxGeometry y="26" width="280" height="26" as="geometry"/>
                </mxCell>
                <mxCell id="84" value="InternationalPhoneInternationPhoneCommentID" style="text;strokeColor=#36393d;fillColor=#ffcc99;align=left;verticalAlign=top;spacingLeft=4;spacingRight=4;overflow=hidden;rotatable=0;points=[[0,0.5],[1,0.5]];portConstraint=eastwest;fontColor=#000000;" parent="82" vertex="1">
                    <mxGeometry y="52" width="280" height="28" as="geometry"/>
                </mxCell>
                <mxCell id="449" value="UserCommentID" style="text;strokeColor=#36393d;fillColor=#ffcc99;align=left;verticalAlign=top;spacingLeft=4;spacingRight=4;overflow=hidden;rotatable=0;points=[[0,0.5],[1,0.5]];portConstraint=eastwest;fontColor=#000000;" parent="82" vertex="1">
                    <mxGeometry y="80" width="280" height="28" as="geometry"/>
                </mxCell>
                <mxCell id="85" value="Comment" style="text;strokeColor=#36393d;fillColor=#ffcc99;align=left;verticalAlign=top;spacingLeft=4;spacingRight=4;overflow=hidden;rotatable=0;points=[[0,0.5],[1,0.5]];portConstraint=eastwest;fontColor=#000000;" parent="82" vertex="1">
                    <mxGeometry y="108" width="280" height="26" as="geometry"/>
                </mxCell>
                <mxCell id="533" value="UpdateTime" style="text;strokeColor=#36393d;fillColor=#ffcc99;align=left;verticalAlign=top;spacingLeft=4;spacingRight=4;overflow=hidden;rotatable=0;points=[[0,0.5],[1,0.5]];portConstraint=eastwest;fontColor=#000000;" vertex="1" parent="82">
                    <mxGeometry y="134" width="280" height="26" as="geometry"/>
                </mxCell>
                <mxCell id="94" value="EmailComment" style="swimlane;fontStyle=0;childLayout=stackLayout;horizontal=1;startSize=26;fillColor=#f8cecc;horizontalStack=0;resizeParent=1;resizeParentMax=0;resizeLast=0;collapsible=1;marginBottom=0;strokeColor=#b85450;gradientColor=#ea6b66;" parent="1" vertex="1">
                    <mxGeometry x="-281" y="573" width="280" height="156" as="geometry"/>
                </mxCell>
                <mxCell id="95" value="EmailCommentID" style="text;strokeColor=#36393d;fillColor=#ffcc99;align=left;verticalAlign=top;spacingLeft=4;spacingRight=4;overflow=hidden;rotatable=0;points=[[0,0.5],[1,0.5]];portConstraint=eastwest;fontColor=#000000;" parent="94" vertex="1">
                    <mxGeometry y="26" width="280" height="26" as="geometry"/>
                </mxCell>
                <mxCell id="96" value="EmailEmailCommentID" style="text;strokeColor=#36393d;fillColor=#ffcc99;align=left;verticalAlign=top;spacingLeft=4;spacingRight=4;overflow=hidden;rotatable=0;points=[[0,0.5],[1,0.5]];portConstraint=eastwest;fontColor=#000000;" parent="94" vertex="1">
                    <mxGeometry y="52" width="280" height="26" as="geometry"/>
                </mxCell>
                <mxCell id="450" value="UserCommentID" style="text;strokeColor=#36393d;fillColor=#ffcc99;align=left;verticalAlign=top;spacingLeft=4;spacingRight=4;overflow=hidden;rotatable=0;points=[[0,0.5],[1,0.5]];portConstraint=eastwest;fontColor=#000000;" parent="94" vertex="1">
                    <mxGeometry y="78" width="280" height="26" as="geometry"/>
                </mxCell>
                <mxCell id="97" value="Comment" style="text;strokeColor=#36393d;fillColor=#ffcc99;align=left;verticalAlign=top;spacingLeft=4;spacingRight=4;overflow=hidden;rotatable=0;points=[[0,0.5],[1,0.5]];portConstraint=eastwest;fontColor=#000000;" parent="94" vertex="1">
                    <mxGeometry y="104" width="280" height="26" as="geometry"/>
                </mxCell>
                <mxCell id="534" value="UpdateTime" style="text;strokeColor=#36393d;fillColor=#ffcc99;align=left;verticalAlign=top;spacingLeft=4;spacingRight=4;overflow=hidden;rotatable=0;points=[[0,0.5],[1,0.5]];portConstraint=eastwest;fontColor=#000000;" vertex="1" parent="94">
                    <mxGeometry y="130" width="280" height="26" as="geometry"/>
                </mxCell>
                <mxCell id="101" value="Countries" style="swimlane;fontStyle=0;childLayout=stackLayout;horizontal=1;startSize=26;fillColor=#f8cecc;horizontalStack=0;resizeParent=1;resizeParentMax=0;resizeLast=0;collapsible=1;marginBottom=0;strokeColor=#b85450;gradientColor=#ea6b66;" parent="1" vertex="1">
                    <mxGeometry x="320" y="600" width="240" height="234" as="geometry"/>
                </mxCell>
                <mxCell id="102" value="CountryID" style="text;strokeColor=#36393d;fillColor=#ffcc99;align=left;verticalAlign=top;spacingLeft=4;spacingRight=4;overflow=hidden;rotatable=0;points=[[0,0.5],[1,0.5]];portConstraint=eastwest;fontColor=#000000;" parent="101" vertex="1">
                    <mxGeometry y="26" width="240" height="26" as="geometry"/>
                </mxCell>
                <mxCell id="103" value="Iso" style="text;strokeColor=#36393d;fillColor=#ffcc99;align=left;verticalAlign=top;spacingLeft=4;spacingRight=4;overflow=hidden;rotatable=0;points=[[0,0.5],[1,0.5]];portConstraint=eastwest;fontColor=#000000;" parent="101" vertex="1">
                    <mxGeometry y="52" width="240" height="26" as="geometry"/>
                </mxCell>
                <mxCell id="407" value="Name" style="text;strokeColor=#36393d;fillColor=#ffcc99;align=left;verticalAlign=top;spacingLeft=4;spacingRight=4;overflow=hidden;rotatable=0;points=[[0,0.5],[1,0.5]];portConstraint=eastwest;fontColor=#000000;" parent="101" vertex="1">
                    <mxGeometry y="78" width="240" height="26" as="geometry"/>
                </mxCell>
                <mxCell id="148" value="NiceName" style="text;strokeColor=#36393d;fillColor=#ffcc99;align=left;verticalAlign=top;spacingLeft=4;spacingRight=4;overflow=hidden;rotatable=0;points=[[0,0.5],[1,0.5]];portConstraint=eastwest;fontColor=#000000;" parent="101" vertex="1">
                    <mxGeometry y="104" width="240" height="26" as="geometry"/>
                </mxCell>
                <mxCell id="411" value="Nacionality" style="text;strokeColor=#36393d;fillColor=#ffcc99;align=left;verticalAlign=top;spacingLeft=4;spacingRight=4;overflow=hidden;rotatable=0;points=[[0,0.5],[1,0.5]];portConstraint=eastwest;fontColor=#000000;" parent="101" vertex="1">
                    <mxGeometry y="130" width="240" height="26" as="geometry"/>
                </mxCell>
                <mxCell id="408" value="Iso3" style="text;strokeColor=#36393d;fillColor=#ffcc99;align=left;verticalAlign=top;spacingLeft=4;spacingRight=4;overflow=hidden;rotatable=0;points=[[0,0.5],[1,0.5]];portConstraint=eastwest;fontColor=#000000;" parent="101" vertex="1">
                    <mxGeometry y="156" width="240" height="26" as="geometry"/>
                </mxCell>
                <mxCell id="409" value="NumCode" style="text;strokeColor=#36393d;fillColor=#ffcc99;align=left;verticalAlign=top;spacingLeft=4;spacingRight=4;overflow=hidden;rotatable=0;points=[[0,0.5],[1,0.5]];portConstraint=eastwest;fontColor=#000000;" parent="101" vertex="1">
                    <mxGeometry y="182" width="240" height="26" as="geometry"/>
                </mxCell>
                <mxCell id="410" value="PhoneCode" style="text;strokeColor=#36393d;fillColor=#ffcc99;align=left;verticalAlign=top;spacingLeft=4;spacingRight=4;overflow=hidden;rotatable=0;points=[[0,0.5],[1,0.5]];portConstraint=eastwest;fontColor=#000000;" parent="101" vertex="1">
                    <mxGeometry y="208" width="240" height="26" as="geometry"/>
                </mxCell>
                <mxCell id="108" style="edgeStyle=orthogonalEdgeStyle;html=1;fontColor=#000000;exitX=0;exitY=0.5;exitDx=0;exitDy=0;entryX=1;entryY=0.5;entryDx=0;entryDy=0;" parent="1" source="102" target="100" edge="1">
                    <mxGeometry relative="1" as="geometry">
                        <mxPoint x="400" y="679" as="sourcePoint"/>
                        <Array as="points">
                            <mxPoint x="310" y="639"/>
                            <mxPoint x="310" y="491"/>
                        </Array>
                    </mxGeometry>
                </mxCell>
                <mxCell id="111" value="https://gist.github.com/adhipg/1600028" style="shape=tapeData;whiteSpace=wrap;html=1;perimeter=ellipsePerimeter;fillColor=#e6d0de;strokeWidth=0;gradientColor=#d5739d;strokeColor=#996185;fontColor=#000000;" parent="1" vertex="1">
                    <mxGeometry x="319" y="840" width="240" height="26" as="geometry"/>
                </mxCell>
                <mxCell id="112" value="Provinces" style="swimlane;fontStyle=0;childLayout=stackLayout;horizontal=1;startSize=26;fillColor=#f8cecc;horizontalStack=0;resizeParent=1;resizeParentMax=0;resizeLast=0;collapsible=1;marginBottom=0;strokeColor=#b85450;gradientColor=#ea6b66;" parent="1" vertex="1">
                    <mxGeometry x="610" y="680" width="240" height="104" as="geometry"/>
                </mxCell>
                <mxCell id="113" value="ProvinceID" style="text;strokeColor=#36393d;fillColor=#ffcc99;align=left;verticalAlign=top;spacingLeft=4;spacingRight=4;overflow=hidden;rotatable=0;points=[[0,0.5],[1,0.5]];portConstraint=eastwest;fontColor=#000000;" parent="112" vertex="1">
                    <mxGeometry y="26" width="240" height="26" as="geometry"/>
                </mxCell>
                <mxCell id="114" value="ProvinceCountryID" style="text;strokeColor=#36393d;fillColor=#ffcc99;align=left;verticalAlign=top;spacingLeft=4;spacingRight=4;overflow=hidden;rotatable=0;points=[[0,0.5],[1,0.5]];portConstraint=eastwest;fontColor=#000000;" parent="112" vertex="1">
                    <mxGeometry y="52" width="240" height="26" as="geometry"/>
                </mxCell>
                <mxCell id="115" value="Province" style="text;strokeColor=#36393d;fillColor=#ffcc99;align=left;verticalAlign=top;spacingLeft=4;spacingRight=4;overflow=hidden;rotatable=0;points=[[0,0.5],[1,0.5]];portConstraint=eastwest;fontColor=#000000;" parent="112" vertex="1">
                    <mxGeometry y="78" width="240" height="26" as="geometry"/>
                </mxCell>
                <mxCell id="116" style="edgeStyle=orthogonalEdgeStyle;html=1;fontColor=#000000;" parent="1" source="102" target="114" edge="1">
                    <mxGeometry relative="1" as="geometry"/>
                </mxCell>
                <mxCell id="117" value="Locations" style="swimlane;fontStyle=0;childLayout=stackLayout;horizontal=1;startSize=26;fillColor=#f8cecc;horizontalStack=0;resizeParent=1;resizeParentMax=0;resizeLast=0;collapsible=1;marginBottom=0;strokeColor=#b85450;gradientColor=#ea6b66;" parent="1" vertex="1">
                    <mxGeometry x="880" y="654" width="240" height="104" as="geometry"/>
                </mxCell>
                <mxCell id="118" value="LocationID" style="text;strokeColor=#36393d;fillColor=#ffcc99;align=left;verticalAlign=top;spacingLeft=4;spacingRight=4;overflow=hidden;rotatable=0;points=[[0,0.5],[1,0.5]];portConstraint=eastwest;fontColor=#000000;" parent="117" vertex="1">
                    <mxGeometry y="26" width="240" height="26" as="geometry"/>
                </mxCell>
                <mxCell id="119" value="LocationProvinceID" style="text;strokeColor=#36393d;fillColor=#ffcc99;align=left;verticalAlign=top;spacingLeft=4;spacingRight=4;overflow=hidden;rotatable=0;points=[[0,0.5],[1,0.5]];portConstraint=eastwest;fontColor=#000000;" parent="117" vertex="1">
                    <mxGeometry y="52" width="240" height="26" as="geometry"/>
                </mxCell>
                <mxCell id="120" value="Location" style="text;strokeColor=#36393d;fillColor=#ffcc99;align=left;verticalAlign=top;spacingLeft=4;spacingRight=4;overflow=hidden;rotatable=0;points=[[0,0.5],[1,0.5]];portConstraint=eastwest;fontColor=#000000;" parent="117" vertex="1">
                    <mxGeometry y="78" width="240" height="26" as="geometry"/>
                </mxCell>
                <mxCell id="121" style="edgeStyle=orthogonalEdgeStyle;html=1;entryX=0;entryY=0.5;entryDx=0;entryDy=0;fontColor=#000000;" parent="1" source="113" target="119" edge="1">
                    <mxGeometry relative="1" as="geometry"/>
                </mxCell>
                <mxCell id="123" value="ZipCodes" style="swimlane;fontStyle=0;childLayout=stackLayout;horizontal=1;startSize=26;fillColor=#f8cecc;horizontalStack=0;resizeParent=1;resizeParentMax=0;resizeLast=0;collapsible=1;marginBottom=0;strokeColor=#b85450;gradientColor=#ea6b66;" parent="1" vertex="1">
                    <mxGeometry x="1155" y="628" width="240" height="104" as="geometry">
                        <mxRectangle x="1160" y="640" width="80" height="26" as="alternateBounds"/>
                    </mxGeometry>
                </mxCell>
                <mxCell id="124" value="ZipCodeID" style="text;strokeColor=#36393d;fillColor=#ffcc99;align=left;verticalAlign=top;spacingLeft=4;spacingRight=4;overflow=hidden;rotatable=0;points=[[0,0.5],[1,0.5]];portConstraint=eastwest;fontColor=#000000;" parent="123" vertex="1">
                    <mxGeometry y="26" width="240" height="26" as="geometry"/>
                </mxCell>
                <mxCell id="125" value="ZipCodeLocationID" style="text;strokeColor=#36393d;fillColor=#ffcc99;align=left;verticalAlign=top;spacingLeft=4;spacingRight=4;overflow=hidden;rotatable=0;points=[[0,0.5],[1,0.5]];portConstraint=eastwest;fontColor=#000000;" parent="123" vertex="1">
                    <mxGeometry y="52" width="240" height="26" as="geometry"/>
                </mxCell>
                <mxCell id="126" value="ZipCode" style="text;strokeColor=#36393d;fillColor=#ffcc99;align=left;verticalAlign=top;spacingLeft=4;spacingRight=4;overflow=hidden;rotatable=0;points=[[0,0.5],[1,0.5]];portConstraint=eastwest;fontColor=#000000;" parent="123" vertex="1">
                    <mxGeometry y="78" width="240" height="26" as="geometry"/>
                </mxCell>
                <mxCell id="127" style="edgeStyle=orthogonalEdgeStyle;html=1;entryX=0;entryY=0.5;entryDx=0;entryDy=0;fontColor=#000000;" parent="1" source="118" target="125" edge="1">
                    <mxGeometry relative="1" as="geometry"/>
                </mxCell>
                <mxCell id="128" value="Street" style="swimlane;fontStyle=0;childLayout=stackLayout;horizontal=1;startSize=26;fillColor=#f8cecc;horizontalStack=0;resizeParent=1;resizeParentMax=0;resizeLast=0;collapsible=1;marginBottom=0;strokeColor=#b85450;gradientColor=#ea6b66;" parent="1" vertex="1">
                    <mxGeometry x="1440" y="589" width="240" height="104" as="geometry"/>
                </mxCell>
                <mxCell id="129" value="StreetID" style="text;strokeColor=#36393d;fillColor=#ffcc99;align=left;verticalAlign=top;spacingLeft=4;spacingRight=4;overflow=hidden;rotatable=0;points=[[0,0.5],[1,0.5]];portConstraint=eastwest;fontColor=#000000;" parent="128" vertex="1">
                    <mxGeometry y="26" width="240" height="26" as="geometry"/>
                </mxCell>
                <mxCell id="130" value="StreetZipCodeID" style="text;strokeColor=#36393d;fillColor=#ffcc99;align=left;verticalAlign=top;spacingLeft=4;spacingRight=4;overflow=hidden;rotatable=0;points=[[0,0.5],[1,0.5]];portConstraint=eastwest;fontColor=#000000;" parent="128" vertex="1">
                    <mxGeometry y="52" width="240" height="26" as="geometry"/>
                </mxCell>
                <mxCell id="131" value="Street" style="text;strokeColor=#36393d;fillColor=#ffcc99;align=left;verticalAlign=top;spacingLeft=4;spacingRight=4;overflow=hidden;rotatable=0;points=[[0,0.5],[1,0.5]];portConstraint=eastwest;fontColor=#000000;" parent="128" vertex="1">
                    <mxGeometry y="78" width="240" height="26" as="geometry"/>
                </mxCell>
                <mxCell id="145" value="UserAdress" style="swimlane;fontStyle=0;childLayout=stackLayout;horizontal=1;startSize=26;fillColor=#f8cecc;horizontalStack=0;resizeParent=1;resizeParentMax=0;resizeLast=0;collapsible=1;marginBottom=0;strokeColor=#b85450;gradientColor=#ea6b66;" parent="1" vertex="1">
                    <mxGeometry x="610" y="537" width="240" height="130" as="geometry"/>
                </mxCell>
                <mxCell id="146" value="UserAddressID" style="text;strokeColor=#36393d;fillColor=#ffcc99;align=left;verticalAlign=top;spacingLeft=4;spacingRight=4;overflow=hidden;rotatable=0;points=[[0,0.5],[1,0.5]];portConstraint=eastwest;fontColor=#000000;" parent="145" vertex="1">
                    <mxGeometry y="26" width="240" height="26" as="geometry"/>
                </mxCell>
                <mxCell id="471" value="UserElaID" style="text;strokeColor=#36393d;fillColor=#ffcc99;align=left;verticalAlign=top;spacingLeft=4;spacingRight=4;overflow=hidden;rotatable=0;points=[[0,0.5],[1,0.5]];portConstraint=eastwest;fontColor=#000000;" parent="145" vertex="1">
                    <mxGeometry y="52" width="240" height="26" as="geometry"/>
                </mxCell>
                <mxCell id="147" value="UserAdressStreetID" style="text;strokeColor=#36393d;fillColor=#ffcc99;align=left;verticalAlign=top;spacingLeft=4;spacingRight=4;overflow=hidden;rotatable=0;points=[[0,0.5],[1,0.5]];portConstraint=eastwest;fontColor=#000000;" parent="145" vertex="1">
                    <mxGeometry y="78" width="240" height="26" as="geometry"/>
                </mxCell>
                <mxCell id="469" value="Adress" style="text;strokeColor=#36393d;fillColor=#ffcc99;align=left;verticalAlign=top;spacingLeft=4;spacingRight=4;overflow=hidden;rotatable=0;points=[[0,0.5],[1,0.5]];portConstraint=eastwest;fontColor=#000000;" parent="145" vertex="1">
                    <mxGeometry y="104" width="240" height="26" as="geometry"/>
                </mxCell>
                <mxCell id="150" style="edgeStyle=orthogonalEdgeStyle;html=1;entryX=0;entryY=0.5;entryDx=0;entryDy=0;fontColor=#000000;" parent="1" source="4" target="471" edge="1">
                    <mxGeometry relative="1" as="geometry"/>
                </mxCell>
                <mxCell id="154" value="UserComments" style="swimlane;fontStyle=0;childLayout=stackLayout;horizontal=1;startSize=26;fillColor=#f8cecc;horizontalStack=0;resizeParent=1;resizeParentMax=0;resizeLast=0;collapsible=1;marginBottom=0;strokeColor=#b85450;glass=0;gradientColor=#ea6b66;" parent="1" vertex="1">
                    <mxGeometry x="610" y="282" width="240" height="156" as="geometry">
                        <mxRectangle x="600" y="336" width="120" height="26" as="alternateBounds"/>
                    </mxGeometry>
                </mxCell>
                <mxCell id="155" value="CommentID" style="text;strokeColor=#36393d;fillColor=#ffcc99;align=left;verticalAlign=top;spacingLeft=4;spacingRight=4;overflow=hidden;rotatable=0;points=[[0,0.5],[1,0.5]];portConstraint=eastwest;fontColor=#000000;" parent="154" vertex="1">
                    <mxGeometry y="26" width="240" height="26" as="geometry"/>
                </mxCell>
                <mxCell id="156" value="UserCommentID" style="text;strokeColor=#36393d;fillColor=#ffcc99;align=left;verticalAlign=top;spacingLeft=4;spacingRight=4;overflow=hidden;rotatable=0;points=[[0,0.5],[1,0.5]];portConstraint=eastwest;fontColor=#000000;" parent="154" vertex="1">
                    <mxGeometry y="52" width="240" height="26" as="geometry"/>
                </mxCell>
                <mxCell id="158" value="CommentToUserID" style="text;strokeColor=#36393d;fillColor=#ffcc99;align=left;verticalAlign=top;spacingLeft=4;spacingRight=4;overflow=hidden;rotatable=0;points=[[0,0.5],[1,0.5]];portConstraint=eastwest;fontColor=#000000;" parent="154" vertex="1">
                    <mxGeometry y="78" width="240" height="26" as="geometry"/>
                </mxCell>
                <mxCell id="160" value="Comment" style="text;strokeColor=#36393d;fillColor=#ffcc99;align=left;verticalAlign=top;spacingLeft=4;spacingRight=4;overflow=hidden;rotatable=0;points=[[0,0.5],[1,0.5]];portConstraint=eastwest;fontColor=#000000;" parent="154" vertex="1">
                    <mxGeometry y="104" width="240" height="26" as="geometry"/>
                </mxCell>
                <mxCell id="535" value="UpdateTime" style="text;strokeColor=#36393d;fillColor=#ffcc99;align=left;verticalAlign=top;spacingLeft=4;spacingRight=4;overflow=hidden;rotatable=0;points=[[0,0.5],[1,0.5]];portConstraint=eastwest;fontColor=#000000;" vertex="1" parent="154">
                    <mxGeometry y="130" width="240" height="26" as="geometry"/>
                </mxCell>
                <mxCell id="157" style="edgeStyle=orthogonalEdgeStyle;html=1;entryX=0;entryY=0.5;entryDx=0;entryDy=0;fontColor=#000000;" parent="1" source="4" target="156" edge="1">
                    <mxGeometry relative="1" as="geometry"/>
                </mxCell>
                <mxCell id="159" style="edgeStyle=orthogonalEdgeStyle;html=1;entryX=0;entryY=0.5;entryDx=0;entryDy=0;fontColor=#000000;" parent="1" source="4" target="158" edge="1">
                    <mxGeometry relative="1" as="geometry"/>
                </mxCell>
                <mxCell id="163" value="Roles" style="swimlane;fontStyle=0;childLayout=stackLayout;horizontal=1;startSize=26;fillColor=#fa6800;horizontalStack=0;resizeParent=1;resizeParentMax=0;resizeLast=0;collapsible=1;marginBottom=0;strokeColor=#C73500;fontColor=#000000;" parent="1" vertex="1">
                    <mxGeometry x="890" y="223" width="240" height="78" as="geometry"/>
                </mxCell>
                <mxCell id="165" value="RolID" style="text;strokeColor=#36393d;fillColor=#ffcc99;align=left;verticalAlign=top;spacingLeft=4;spacingRight=4;overflow=hidden;rotatable=0;points=[[0,0.5],[1,0.5]];portConstraint=eastwest;fontColor=#000000;" parent="163" vertex="1">
                    <mxGeometry y="26" width="240" height="26" as="geometry"/>
                </mxCell>
                <mxCell id="187" value="Rol" style="text;strokeColor=#36393d;fillColor=#ffcc99;align=left;verticalAlign=top;spacingLeft=4;spacingRight=4;overflow=hidden;rotatable=0;points=[[0,0.5],[1,0.5]];portConstraint=eastwest;fontColor=#000000;" parent="163" vertex="1">
                    <mxGeometry y="52" width="240" height="26" as="geometry"/>
                </mxCell>
                <mxCell id="179" value="Course" style="swimlane;fontStyle=0;childLayout=stackLayout;horizontal=1;startSize=26;fillColor=#fa6800;horizontalStack=0;resizeParent=1;resizeParentMax=0;resizeLast=0;collapsible=1;marginBottom=0;strokeColor=#C73500;glass=0;fontColor=#000000;" parent="1" vertex="1">
                    <mxGeometry x="1180" y="2" width="380" height="326" as="geometry"/>
                </mxCell>
                <mxCell id="180" value="CourseID" style="text;strokeColor=#36393d;fillColor=#ffcc99;align=left;verticalAlign=top;spacingLeft=4;spacingRight=4;overflow=hidden;rotatable=0;points=[[0,0.5],[1,0.5]];portConstraint=eastwest;fontColor=#000000;" parent="179" vertex="1">
                    <mxGeometry y="26" width="380" height="26" as="geometry"/>
                </mxCell>
                <mxCell id="258" value="CourseCourseTypeID" style="text;strokeColor=#36393d;fillColor=#ffcc99;align=left;verticalAlign=top;spacingLeft=4;spacingRight=4;overflow=hidden;rotatable=0;points=[[0,0.5],[1,0.5]];portConstraint=eastwest;fontColor=#000000;" parent="179" vertex="1">
                    <mxGeometry y="52" width="380" height="26" as="geometry"/>
                </mxCell>
                <mxCell id="181" value="CourseName" style="text;strokeColor=#36393d;fillColor=#ffcc99;align=left;verticalAlign=top;spacingLeft=4;spacingRight=4;overflow=hidden;rotatable=0;points=[[0,0.5],[1,0.5]];portConstraint=eastwest;fontColor=#000000;" parent="179" vertex="1">
                    <mxGeometry y="78" width="380" height="26" as="geometry"/>
                </mxCell>
                <mxCell id="184" value="CourseDate" style="text;strokeColor=#36393d;fillColor=#ffcc99;align=left;verticalAlign=top;spacingLeft=4;spacingRight=4;overflow=hidden;rotatable=0;points=[[0,0.5],[1,0.5]];portConstraint=eastwest;fontColor=#000000;fontStyle=0" parent="179" vertex="1">
                    <mxGeometry y="104" width="380" height="26" as="geometry"/>
                </mxCell>
                <mxCell id="185" value="SubjectCourseID" style="text;strokeColor=#36393d;fillColor=#ffcc99;align=left;verticalAlign=top;spacingLeft=4;spacingRight=4;overflow=hidden;rotatable=0;points=[[0,0.5],[1,0.5]];portConstraint=eastwest;fontColor=#000000;" parent="179" vertex="1">
                    <mxGeometry y="130" width="380" height="26" as="geometry"/>
                </mxCell>
                <mxCell id="186" value="LevelCourseID" style="text;strokeColor=#36393d;fillColor=#ffcc99;align=left;verticalAlign=top;spacingLeft=4;spacingRight=4;overflow=hidden;rotatable=0;points=[[0,0.5],[1,0.5]];portConstraint=eastwest;fontColor=#000000;" parent="179" vertex="1">
                    <mxGeometry y="156" width="380" height="26" as="geometry"/>
                </mxCell>
                <mxCell id="225" value="WeeklyStudySessions {SessionX:{Day: L, HourStart: Y, HourEnd: Z}}" style="text;strokeColor=#36393d;fillColor=#ffcc99;align=left;verticalAlign=top;spacingLeft=4;spacingRight=4;overflow=hidden;rotatable=0;points=[[0,0.5],[1,0.5]];portConstraint=eastwest;fontColor=#000000;" parent="179" vertex="1">
                    <mxGeometry y="182" width="380" height="24" as="geometry"/>
                </mxCell>
                <mxCell id="386" value="HourlySalary" style="text;strokeColor=#36393d;fillColor=#ffcc99;align=left;verticalAlign=top;spacingLeft=4;spacingRight=4;overflow=hidden;rotatable=0;points=[[0,0.5],[1,0.5]];portConstraint=eastwest;fontColor=#000000;" parent="179" vertex="1">
                    <mxGeometry y="206" width="380" height="24" as="geometry"/>
                </mxCell>
                <mxCell id="293" value="CourseWeeklyPaymentID" style="text;strokeColor=#36393d;fillColor=#ffcc99;align=left;verticalAlign=top;spacingLeft=4;spacingRight=4;overflow=hidden;rotatable=0;points=[[0,0.5],[1,0.5]];portConstraint=eastwest;fontColor=#000000;" parent="179" vertex="1">
                    <mxGeometry y="230" width="380" height="24" as="geometry"/>
                </mxCell>
                <mxCell id="557" value="Status" style="text;strokeColor=#36393d;fillColor=#ffcc99;align=left;verticalAlign=top;spacingLeft=4;spacingRight=4;overflow=hidden;rotatable=0;points=[[0,0.5],[1,0.5]];portConstraint=eastwest;fontColor=#000000;" vertex="1" parent="179">
                    <mxGeometry y="254" width="380" height="24" as="geometry"/>
                </mxCell>
                <mxCell id="226" value="Comment" style="text;strokeColor=#36393d;fillColor=#ffcc99;align=left;verticalAlign=top;spacingLeft=4;spacingRight=4;overflow=hidden;rotatable=0;points=[[0,0.5],[1,0.5]];portConstraint=eastwest;fontColor=#000000;" parent="179" vertex="1">
                    <mxGeometry y="278" width="380" height="24" as="geometry"/>
                </mxCell>
                <mxCell id="559" value="CreationDate" style="text;strokeColor=#36393d;fillColor=#ffcc99;align=left;verticalAlign=top;spacingLeft=4;spacingRight=4;overflow=hidden;rotatable=0;points=[[0,0.5],[1,0.5]];portConstraint=eastwest;fontColor=#000000;" vertex="1" parent="179">
                    <mxGeometry y="302" width="380" height="24" as="geometry"/>
                </mxCell>
                <mxCell id="193" value="UserRoles" style="swimlane;fontStyle=0;childLayout=stackLayout;horizontal=1;startSize=26;fillColor=#fa6800;horizontalStack=0;resizeParent=1;resizeParentMax=0;resizeLast=0;collapsible=1;marginBottom=0;strokeColor=#C73500;fontColor=#000000;" parent="1" vertex="1">
                    <mxGeometry x="610" y="171" width="240" height="104" as="geometry"/>
                </mxCell>
                <mxCell id="194" value="UserRoleID" style="text;strokeColor=#36393d;fillColor=#ffcc99;align=left;verticalAlign=top;spacingLeft=4;spacingRight=4;overflow=hidden;rotatable=0;points=[[0,0.5],[1,0.5]];portConstraint=eastwest;fontColor=#000000;" parent="193" vertex="1">
                    <mxGeometry y="26" width="240" height="26" as="geometry"/>
                </mxCell>
                <mxCell id="195" value="UserUserRoleID" style="text;strokeColor=#36393d;fillColor=#ffcc99;align=left;verticalAlign=top;spacingLeft=4;spacingRight=4;overflow=hidden;rotatable=0;points=[[0,0.5],[1,0.5]];portConstraint=eastwest;fontColor=#000000;" parent="193" vertex="1">
                    <mxGeometry y="52" width="240" height="26" as="geometry"/>
                </mxCell>
                <mxCell id="196" value="RoleUserRoleID" style="text;strokeColor=#36393d;fillColor=#ffcc99;align=left;verticalAlign=top;spacingLeft=4;spacingRight=4;overflow=hidden;rotatable=0;points=[[0,0.5],[1,0.5]];portConstraint=eastwest;fontColor=#000000;" parent="193" vertex="1">
                    <mxGeometry y="78" width="240" height="26" as="geometry"/>
                </mxCell>
                <mxCell id="206" style="edgeStyle=orthogonalEdgeStyle;html=1;fontColor=#000000;entryX=1;entryY=0.5;entryDx=0;entryDy=0;" parent="1" source="165" target="196" edge="1">
                    <mxGeometry relative="1" as="geometry">
                        <mxPoint x="860" y="270" as="targetPoint"/>
                    </mxGeometry>
                </mxCell>
                <mxCell id="208" style="edgeStyle=orthogonalEdgeStyle;html=1;entryX=0;entryY=0.5;entryDx=0;entryDy=0;fontColor=#000000;" parent="1" source="4" target="195" edge="1">
                    <mxGeometry relative="1" as="geometry"/>
                </mxCell>
                <mxCell id="211" value="UserPasswordHistory" style="swimlane;fontStyle=0;childLayout=stackLayout;horizontal=1;startSize=26;fillColor=#ffcd28;horizontalStack=0;resizeParent=1;resizeParentMax=0;resizeLast=0;collapsible=1;marginBottom=0;strokeColor=#d79b00;gradientColor=#ffa500;" parent="1" vertex="1">
                    <mxGeometry x="610" y="54" width="240" height="104" as="geometry"/>
                </mxCell>
                <mxCell id="212" value="UserPasswordHistoryID" style="text;strokeColor=#36393d;fillColor=#ffcc99;align=left;verticalAlign=top;spacingLeft=4;spacingRight=4;overflow=hidden;rotatable=0;points=[[0,0.5],[1,0.5]];portConstraint=eastwest;fontColor=#000000;" parent="211" vertex="1">
                    <mxGeometry y="26" width="240" height="26" as="geometry"/>
                </mxCell>
                <mxCell id="213" value="UserUserPasswordHistoryID" style="text;strokeColor=#36393d;fillColor=#ffcc99;align=left;verticalAlign=top;spacingLeft=4;spacingRight=4;overflow=hidden;rotatable=0;points=[[0,0.5],[1,0.5]];portConstraint=eastwest;fontColor=#000000;" parent="211" vertex="1">
                    <mxGeometry y="52" width="240" height="26" as="geometry"/>
                </mxCell>
                <mxCell id="214" value="Hash" style="text;strokeColor=#36393d;fillColor=#ffcc99;align=left;verticalAlign=top;spacingLeft=4;spacingRight=4;overflow=hidden;rotatable=0;points=[[0,0.5],[1,0.5]];portConstraint=eastwest;fontColor=#000000;" parent="211" vertex="1">
                    <mxGeometry y="78" width="240" height="26" as="geometry"/>
                </mxCell>
                <mxCell id="217" style="edgeStyle=orthogonalEdgeStyle;html=1;entryX=0;entryY=0.5;entryDx=0;entryDy=0;" parent="1" source="4" target="213" edge="1">
                    <mxGeometry relative="1" as="geometry"/>
                </mxCell>
                <mxCell id="218" value="UserLastAccess" style="swimlane;fontStyle=0;childLayout=stackLayout;horizontal=1;startSize=26;fillColor=#ffcd28;horizontalStack=0;resizeParent=1;resizeParentMax=0;resizeLast=0;collapsible=1;marginBottom=0;strokeColor=#d79b00;gradientColor=#ffa500;" parent="1" vertex="1">
                    <mxGeometry x="610" y="-71" width="240" height="104" as="geometry"/>
                </mxCell>
                <mxCell id="219" value="UserLastAccessID" style="text;strokeColor=#36393d;fillColor=#ffcc99;align=left;verticalAlign=top;spacingLeft=4;spacingRight=4;overflow=hidden;rotatable=0;points=[[0,0.5],[1,0.5]];portConstraint=eastwest;fontColor=#000000;" parent="218" vertex="1">
                    <mxGeometry y="26" width="240" height="26" as="geometry"/>
                </mxCell>
                <mxCell id="220" value="UserUserLastAccessID" style="text;strokeColor=#36393d;fillColor=#ffcc99;align=left;verticalAlign=top;spacingLeft=4;spacingRight=4;overflow=hidden;rotatable=0;points=[[0,0.5],[1,0.5]];portConstraint=eastwest;fontColor=#000000;" parent="218" vertex="1">
                    <mxGeometry y="52" width="240" height="26" as="geometry"/>
                </mxCell>
                <mxCell id="221" value="TimeAccess" style="text;strokeColor=#36393d;fillColor=#ffcc99;align=left;verticalAlign=top;spacingLeft=4;spacingRight=4;overflow=hidden;rotatable=0;points=[[0,0.5],[1,0.5]];portConstraint=eastwest;fontColor=#000000;" parent="218" vertex="1">
                    <mxGeometry y="78" width="240" height="26" as="geometry"/>
                </mxCell>
                <mxCell id="223" style="edgeStyle=orthogonalEdgeStyle;html=1;entryX=0;entryY=0.5;entryDx=0;entryDy=0;" parent="1" source="4" target="220" edge="1">
                    <mxGeometry relative="1" as="geometry"/>
                </mxCell>
                <mxCell id="229" value="Enrol" style="swimlane;fontStyle=0;childLayout=stackLayout;horizontal=1;startSize=26;fillColor=#fa6800;horizontalStack=0;resizeParent=1;resizeParentMax=0;resizeLast=0;collapsible=1;marginBottom=0;strokeColor=#C73500;glass=0;fontColor=#000000;" parent="1" vertex="1">
                    <mxGeometry x="895" y="-24" width="240" height="200" as="geometry"/>
                </mxCell>
                <mxCell id="230" value="EnrolID" style="text;strokeColor=#36393d;fillColor=#ffcc99;align=left;verticalAlign=top;spacingLeft=4;spacingRight=4;overflow=hidden;rotatable=0;points=[[0,0.5],[1,0.5]];portConstraint=eastwest;fontColor=#000000;" parent="229" vertex="1">
                    <mxGeometry y="26" width="240" height="26" as="geometry"/>
                </mxCell>
                <mxCell id="231" value="CourseEnrolID" style="text;strokeColor=#36393d;fillColor=#ffcc99;align=left;verticalAlign=top;spacingLeft=4;spacingRight=4;overflow=hidden;rotatable=0;points=[[0,0.5],[1,0.5]];portConstraint=eastwest;fontColor=#000000;" parent="229" vertex="1">
                    <mxGeometry y="52" width="240" height="26" as="geometry"/>
                </mxCell>
                <mxCell id="232" value="UserRolesEnrolID" style="text;strokeColor=#36393d;fillColor=#ffcc99;align=left;verticalAlign=top;spacingLeft=4;spacingRight=4;overflow=hidden;rotatable=0;points=[[0,0.5],[1,0.5]];portConstraint=eastwest;fontColor=#000000;fontStyle=0" parent="229" vertex="1">
                    <mxGeometry y="78" width="240" height="26" as="geometry"/>
                </mxCell>
                <mxCell id="236" value="StartDate" style="text;strokeColor=#36393d;fillColor=#ffcc99;align=left;verticalAlign=top;spacingLeft=4;spacingRight=4;overflow=hidden;rotatable=0;points=[[0,0.5],[1,0.5]];portConstraint=eastwest;fontColor=#000000;" parent="229" vertex="1">
                    <mxGeometry y="104" width="240" height="24" as="geometry"/>
                </mxCell>
                <mxCell id="271" value="EndDate" style="text;strokeColor=#36393d;fillColor=#ffcc99;align=left;verticalAlign=top;spacingLeft=4;spacingRight=4;overflow=hidden;rotatable=0;points=[[0,0.5],[1,0.5]];portConstraint=eastwest;fontColor=#000000;" parent="229" vertex="1">
                    <mxGeometry y="128" width="240" height="24" as="geometry"/>
                </mxCell>
                <mxCell id="556" value="Status" style="text;strokeColor=#36393d;fillColor=#ffcc99;align=left;verticalAlign=top;spacingLeft=4;spacingRight=4;overflow=hidden;rotatable=0;points=[[0,0.5],[1,0.5]];portConstraint=eastwest;fontColor=#000000;" vertex="1" parent="229">
                    <mxGeometry y="152" width="240" height="24" as="geometry"/>
                </mxCell>
                <mxCell id="270" value="Comment" style="text;strokeColor=#36393d;fillColor=#ffcc99;align=left;verticalAlign=top;spacingLeft=4;spacingRight=4;overflow=hidden;rotatable=0;points=[[0,0.5],[1,0.5]];portConstraint=eastwest;fontColor=#000000;" parent="229" vertex="1">
                    <mxGeometry y="176" width="240" height="24" as="geometry"/>
                </mxCell>
                <mxCell id="239" style="edgeStyle=orthogonalEdgeStyle;html=1;entryX=1;entryY=0.5;entryDx=0;entryDy=0;" parent="1" source="180" target="231" edge="1">
                    <mxGeometry relative="1" as="geometry"/>
                </mxCell>
                <mxCell id="240" style="edgeStyle=orthogonalEdgeStyle;html=1;entryX=0;entryY=0.5;entryDx=0;entryDy=0;" parent="1" target="232" edge="1">
                    <mxGeometry relative="1" as="geometry">
                        <mxPoint x="850" y="210" as="sourcePoint"/>
                        <Array as="points">
                            <mxPoint x="865" y="210"/>
                            <mxPoint x="865" y="67"/>
                        </Array>
                    </mxGeometry>
                </mxCell>
                <mxCell id="241" value="Books" style="swimlane;fontStyle=0;childLayout=stackLayout;horizontal=1;startSize=26;fillColor=#fa6800;horizontalStack=0;resizeParent=1;resizeParentMax=0;resizeLast=0;collapsible=1;marginBottom=0;strokeColor=#C73500;gradientDirection=south;swimlaneFillColor=default;fontColor=#000000;" parent="1" vertex="1">
                    <mxGeometry x="1870" y="-24" width="240" height="130" as="geometry"/>
                </mxCell>
                <mxCell id="242" value="BookID" style="text;strokeColor=#36393d;fillColor=#ffcc99;align=left;verticalAlign=top;spacingLeft=4;spacingRight=4;overflow=hidden;rotatable=0;points=[[0,0.5],[1,0.5]];portConstraint=eastwest;fontColor=#000000;" parent="241" vertex="1">
                    <mxGeometry y="26" width="240" height="26" as="geometry"/>
                </mxCell>
                <mxCell id="243" value="SerialNumber" style="text;strokeColor=#36393d;fillColor=#ffcc99;align=left;verticalAlign=top;spacingLeft=4;spacingRight=4;overflow=hidden;rotatable=0;points=[[0,0.5],[1,0.5]];portConstraint=eastwest;fontColor=#000000;" parent="241" vertex="1">
                    <mxGeometry y="52" width="240" height="26" as="geometry"/>
                </mxCell>
                <mxCell id="246" value="Name" style="text;strokeColor=#36393d;fillColor=#ffcc99;align=left;verticalAlign=top;spacingLeft=4;spacingRight=4;overflow=hidden;rotatable=0;points=[[0,0.5],[1,0.5]];portConstraint=eastwest;fontColor=#000000;" parent="241" vertex="1">
                    <mxGeometry y="78" width="240" height="26" as="geometry"/>
                </mxCell>
                <mxCell id="345" value="Cost" style="text;strokeColor=#36393d;fillColor=#ffcc99;align=left;verticalAlign=top;spacingLeft=4;spacingRight=4;overflow=hidden;rotatable=0;points=[[0,0.5],[1,0.5]];portConstraint=eastwest;fontColor=#000000;" parent="241" vertex="1">
                    <mxGeometry y="104" width="240" height="26" as="geometry"/>
                </mxCell>
                <mxCell id="249" value="BooksCourses" style="swimlane;fontStyle=0;childLayout=stackLayout;horizontal=1;startSize=26;fillColor=#fa6800;horizontalStack=0;resizeParent=1;resizeParentMax=0;resizeLast=0;collapsible=1;marginBottom=0;strokeColor=#C73500;fontColor=#000000;" parent="1" vertex="1">
                    <mxGeometry x="1600" y="-50" width="240" height="104" as="geometry"/>
                </mxCell>
                <mxCell id="250" value="BookCourseID" style="text;strokeColor=#36393d;fillColor=#ffcc99;align=left;verticalAlign=top;spacingLeft=4;spacingRight=4;overflow=hidden;rotatable=0;points=[[0,0.5],[1,0.5]];portConstraint=eastwest;fontColor=#000000;" parent="249" vertex="1">
                    <mxGeometry y="26" width="240" height="26" as="geometry"/>
                </mxCell>
                <mxCell id="251" value="BookBookCourseID" style="text;strokeColor=#36393d;fillColor=#ffcc99;align=left;verticalAlign=top;spacingLeft=4;spacingRight=4;overflow=hidden;rotatable=0;points=[[0,0.5],[1,0.5]];portConstraint=eastwest;fontColor=#000000;" parent="249" vertex="1">
                    <mxGeometry y="52" width="240" height="26" as="geometry"/>
                </mxCell>
                <mxCell id="252" value="CourseBookCourseID" style="text;strokeColor=#36393d;fillColor=#ffcc99;align=left;verticalAlign=top;spacingLeft=4;spacingRight=4;overflow=hidden;rotatable=0;points=[[0,0.5],[1,0.5]];portConstraint=eastwest;fontColor=#000000;" parent="249" vertex="1">
                    <mxGeometry y="78" width="240" height="26" as="geometry"/>
                </mxCell>
                <mxCell id="256" style="edgeStyle=orthogonalEdgeStyle;html=1;entryX=0;entryY=0.5;entryDx=0;entryDy=0;" parent="1" source="180" target="252" edge="1">
                    <mxGeometry relative="1" as="geometry"/>
                </mxCell>
                <mxCell id="257" style="edgeStyle=orthogonalEdgeStyle;html=1;entryX=1;entryY=0.5;entryDx=0;entryDy=0;" parent="1" source="242" target="251" edge="1">
                    <mxGeometry relative="1" as="geometry"/>
                </mxCell>
                <mxCell id="259" value="Subjects" style="swimlane;fontStyle=0;childLayout=stackLayout;horizontal=1;startSize=26;fillColor=#fa6800;horizontalStack=0;resizeParent=1;resizeParentMax=0;resizeLast=0;collapsible=1;marginBottom=0;strokeColor=#C73500;fontColor=#000000;" parent="1" vertex="1">
                    <mxGeometry x="1600" y="106" width="240" height="78" as="geometry"/>
                </mxCell>
                <mxCell id="260" value="SubjectID" style="text;strokeColor=#36393d;fillColor=#ffcc99;align=left;verticalAlign=top;spacingLeft=4;spacingRight=4;overflow=hidden;rotatable=0;points=[[0,0.5],[1,0.5]];portConstraint=eastwest;fontColor=#000000;" parent="259" vertex="1">
                    <mxGeometry y="26" width="240" height="26" as="geometry"/>
                </mxCell>
                <mxCell id="261" value="Subject" style="text;strokeColor=#36393d;fillColor=#ffcc99;align=left;verticalAlign=top;spacingLeft=4;spacingRight=4;overflow=hidden;rotatable=0;points=[[0,0.5],[1,0.5]];portConstraint=eastwest;fontColor=#000000;" parent="259" vertex="1">
                    <mxGeometry y="52" width="240" height="26" as="geometry"/>
                </mxCell>
                <mxCell id="265" value="Levels" style="swimlane;fontStyle=0;childLayout=stackLayout;horizontal=1;startSize=26;fillColor=#fa6800;horizontalStack=0;resizeParent=1;resizeParentMax=0;resizeLast=0;collapsible=1;marginBottom=0;strokeColor=#C73500;fontColor=#000000;" parent="1" vertex="1">
                    <mxGeometry x="1600" y="195" width="240" height="78" as="geometry"/>
                </mxCell>
                <mxCell id="266" value="LevelID" style="text;strokeColor=#36393d;fillColor=#ffcc99;align=left;verticalAlign=top;spacingLeft=4;spacingRight=4;overflow=hidden;rotatable=0;points=[[0,0.5],[1,0.5]];portConstraint=eastwest;fontColor=#000000;" parent="265" vertex="1">
                    <mxGeometry y="26" width="240" height="26" as="geometry"/>
                </mxCell>
                <mxCell id="267" value="Level" style="text;strokeColor=#36393d;fillColor=#ffcc99;align=left;verticalAlign=top;spacingLeft=4;spacingRight=4;overflow=hidden;rotatable=0;points=[[0,0.5],[1,0.5]];portConstraint=eastwest;fontColor=#000000;" parent="265" vertex="1">
                    <mxGeometry y="52" width="240" height="26" as="geometry"/>
                </mxCell>
                <mxCell id="268" style="edgeStyle=orthogonalEdgeStyle;html=1;entryX=1;entryY=0.5;entryDx=0;entryDy=0;" parent="1" source="260" target="185" edge="1">
                    <mxGeometry relative="1" as="geometry"/>
                </mxCell>
                <mxCell id="269" style="edgeStyle=orthogonalEdgeStyle;html=1;entryX=1;entryY=0.5;entryDx=0;entryDy=0;" parent="1" source="266" target="186" edge="1">
                    <mxGeometry relative="1" as="geometry">
                        <Array as="points">
                            <mxPoint x="1580" y="230"/>
                            <mxPoint x="1580" y="171"/>
                        </Array>
                    </mxGeometry>
                </mxCell>
                <mxCell id="272" value="StudySessions" style="swimlane;fontStyle=0;childLayout=stackLayout;horizontal=1;startSize=26;fillColor=#fa6800;horizontalStack=0;resizeParent=1;resizeParentMax=0;resizeLast=0;collapsible=1;marginBottom=0;strokeColor=#C73500;fontColor=#000000;" parent="1" vertex="1">
                    <mxGeometry x="890" y="322" width="240" height="182" as="geometry"/>
                </mxCell>
                <mxCell id="273" value="StudySessionID" style="text;strokeColor=#36393d;fillColor=#ffcc99;align=left;verticalAlign=top;spacingLeft=4;spacingRight=4;overflow=hidden;rotatable=0;points=[[0,0.5],[1,0.5]];portConstraint=eastwest;fontColor=#000000;" parent="272" vertex="1">
                    <mxGeometry y="26" width="240" height="26" as="geometry"/>
                </mxCell>
                <mxCell id="274" value="CourseStudySessionID" style="text;strokeColor=#36393d;fillColor=#ffcc99;align=left;verticalAlign=top;spacingLeft=4;spacingRight=4;overflow=hidden;rotatable=0;points=[[0,0.5],[1,0.5]];portConstraint=eastwest;fontColor=#000000;" parent="272" vertex="1">
                    <mxGeometry y="52" width="240" height="26" as="geometry"/>
                </mxCell>
                <mxCell id="288" value="Date" style="text;strokeColor=#36393d;fillColor=#ffcc99;align=left;verticalAlign=top;spacingLeft=4;spacingRight=4;overflow=hidden;rotatable=0;points=[[0,0.5],[1,0.5]];portConstraint=eastwest;fontColor=#000000;" parent="272" vertex="1">
                    <mxGeometry y="78" width="240" height="26" as="geometry"/>
                </mxCell>
                <mxCell id="275" value="StartingTime" style="text;strokeColor=#36393d;fillColor=#ffcc99;align=left;verticalAlign=top;spacingLeft=4;spacingRight=4;overflow=hidden;rotatable=0;points=[[0,0.5],[1,0.5]];portConstraint=eastwest;fontColor=#000000;" parent="272" vertex="1">
                    <mxGeometry y="104" width="240" height="26" as="geometry"/>
                </mxCell>
                <mxCell id="276" value="EndingTime" style="text;strokeColor=#36393d;fillColor=#ffcc99;align=left;verticalAlign=top;spacingLeft=4;spacingRight=4;overflow=hidden;rotatable=0;points=[[0,0.5],[1,0.5]];portConstraint=eastwest;fontColor=#000000;" parent="272" vertex="1">
                    <mxGeometry y="130" width="240" height="26" as="geometry"/>
                </mxCell>
                <mxCell id="277" value="UserRoleSessionID(Teacher)" style="text;strokeColor=#36393d;fillColor=#ffcc99;align=left;verticalAlign=top;spacingLeft=4;spacingRight=4;overflow=hidden;rotatable=0;points=[[0,0.5],[1,0.5]];portConstraint=eastwest;fontColor=#000000;" parent="272" vertex="1">
                    <mxGeometry y="156" width="240" height="26" as="geometry"/>
                </mxCell>
                <mxCell id="278" style="edgeStyle=orthogonalEdgeStyle;html=1;exitX=1;exitY=0.5;exitDx=0;exitDy=0;entryX=1;entryY=0.5;entryDx=0;entryDy=0;" parent="1" source="194" target="277" edge="1">
                    <mxGeometry relative="1" as="geometry">
                        <mxPoint x="850" y="220" as="sourcePoint"/>
                        <mxPoint x="1150" y="557" as="targetPoint"/>
                        <Array as="points">
                            <mxPoint x="1150" y="210"/>
                            <mxPoint x="1150" y="491"/>
                        </Array>
                    </mxGeometry>
                </mxCell>
                <mxCell id="279" value="NonAttendance" style="swimlane;fontStyle=0;childLayout=stackLayout;horizontal=1;startSize=26;fillColor=#fa6800;horizontalStack=0;resizeParent=1;resizeParentMax=0;resizeLast=0;collapsible=1;marginBottom=0;strokeColor=#C73500;fontColor=#000000;" parent="1" vertex="1">
                    <mxGeometry x="1180" y="389" width="240" height="104" as="geometry"/>
                </mxCell>
                <mxCell id="280" value="NonAttendanceID" style="text;strokeColor=#36393d;fillColor=#ffcc99;align=left;verticalAlign=top;spacingLeft=4;spacingRight=4;overflow=hidden;rotatable=0;points=[[0,0.5],[1,0.5]];portConstraint=eastwest;fontColor=#000000;" parent="279" vertex="1">
                    <mxGeometry y="26" width="240" height="26" as="geometry"/>
                </mxCell>
                <mxCell id="281" value="NonAttendanceSessionID" style="text;strokeColor=#36393d;fillColor=#ffcc99;align=left;verticalAlign=top;spacingLeft=4;spacingRight=4;overflow=hidden;rotatable=0;points=[[0,0.5],[1,0.5]];portConstraint=eastwest;fontColor=#000000;" parent="279" vertex="1">
                    <mxGeometry y="52" width="240" height="26" as="geometry"/>
                </mxCell>
                <mxCell id="283" value="UserRoleSessionID(Student)" style="text;strokeColor=#36393d;fillColor=#ffcc99;align=left;verticalAlign=top;spacingLeft=4;spacingRight=4;overflow=hidden;rotatable=0;points=[[0,0.5],[1,0.5]];portConstraint=eastwest;fontColor=#000000;" parent="279" vertex="1">
                    <mxGeometry y="78" width="240" height="26" as="geometry"/>
                </mxCell>
                <mxCell id="285" style="edgeStyle=orthogonalEdgeStyle;html=1;entryX=0;entryY=0.5;entryDx=0;entryDy=0;exitX=1;exitY=0.5;exitDx=0;exitDy=0;" parent="1" source="273" target="281" edge="1">
                    <mxGeometry relative="1" as="geometry">
                        <Array as="points">
                            <mxPoint x="1150" y="361"/>
                            <mxPoint x="1150" y="454"/>
                        </Array>
                    </mxGeometry>
                </mxCell>
                <mxCell id="286" style="edgeStyle=orthogonalEdgeStyle;html=1;entryX=0;entryY=0.5;entryDx=0;entryDy=0;" parent="1" target="283" edge="1">
                    <mxGeometry relative="1" as="geometry">
                        <Array as="points">
                            <mxPoint x="1160" y="210"/>
                            <mxPoint x="1160" y="480"/>
                        </Array>
                        <mxPoint x="850" y="210" as="sourcePoint"/>
                    </mxGeometry>
                </mxCell>
                <mxCell id="287" style="edgeStyle=orthogonalEdgeStyle;html=1;entryX=1;entryY=0.5;entryDx=0;entryDy=0;" parent="1" source="180" target="274" edge="1">
                    <mxGeometry relative="1" as="geometry">
                        <Array as="points">
                            <mxPoint x="1150" y="41"/>
                            <mxPoint x="1150" y="387"/>
                        </Array>
                    </mxGeometry>
                </mxCell>
                <mxCell id="294" value="WeeklyPayments" style="swimlane;fontStyle=0;childLayout=stackLayout;horizontal=1;startSize=26;fillColor=#fa6800;horizontalStack=0;resizeParent=1;resizeParentMax=0;resizeLast=0;collapsible=1;marginBottom=0;strokeColor=#C73500;fontColor=#000000;" parent="1" vertex="1">
                    <mxGeometry x="1600" y="285" width="240" height="78" as="geometry"/>
                </mxCell>
                <mxCell id="295" value="WeeklyPaymentsID" style="text;strokeColor=#36393d;fillColor=#ffcc99;align=left;verticalAlign=top;spacingLeft=4;spacingRight=4;overflow=hidden;rotatable=0;points=[[0,0.5],[1,0.5]];portConstraint=eastwest;fontColor=#000000;" parent="294" vertex="1">
                    <mxGeometry y="26" width="240" height="26" as="geometry"/>
                </mxCell>
                <mxCell id="296" value="Payment" style="text;strokeColor=#36393d;fillColor=#ffcc99;align=left;verticalAlign=top;spacingLeft=4;spacingRight=4;overflow=hidden;rotatable=0;points=[[0,0.5],[1,0.5]];portConstraint=eastwest;fontColor=#000000;" parent="294" vertex="1">
                    <mxGeometry y="52" width="240" height="26" as="geometry"/>
                </mxCell>
                <mxCell id="298" style="edgeStyle=orthogonalEdgeStyle;html=1;entryX=1;entryY=0.5;entryDx=0;entryDy=0;" parent="1" source="295" target="293" edge="1">
                    <mxGeometry relative="1" as="geometry">
                        <Array as="points">
                            <mxPoint x="1580" y="320"/>
                            <mxPoint x="1580" y="244"/>
                        </Array>
                    </mxGeometry>
                </mxCell>
                <mxCell id="300" value="CashAccount" style="swimlane;fontStyle=0;childLayout=stackLayout;horizontal=1;startSize=26;fillColor=#e51400;horizontalStack=0;resizeParent=1;resizeParentMax=0;resizeLast=0;collapsible=1;marginBottom=0;strokeColor=#B20000;fontColor=#ffffff;" parent="1" vertex="1">
                    <mxGeometry x="610" y="-404" width="240" height="130" as="geometry"/>
                </mxCell>
                <mxCell id="301" value="CashAccountID" style="text;strokeColor=#36393d;fillColor=#ffcc99;align=left;verticalAlign=top;spacingLeft=4;spacingRight=4;overflow=hidden;rotatable=0;points=[[0,0.5],[1,0.5]];portConstraint=eastwest;fontColor=#000000;" parent="300" vertex="1">
                    <mxGeometry y="26" width="240" height="26" as="geometry"/>
                </mxCell>
                <mxCell id="302" value="CashAccountUserID" style="text;strokeColor=#36393d;fillColor=#ffcc99;align=left;verticalAlign=top;spacingLeft=4;spacingRight=4;overflow=hidden;rotatable=0;points=[[0,0.5],[1,0.5]];portConstraint=eastwest;fontColor=#000000;" parent="300" vertex="1">
                    <mxGeometry y="52" width="240" height="26" as="geometry"/>
                </mxCell>
                <mxCell id="304" value="Currency" style="text;strokeColor=#36393d;fillColor=#ffcc99;align=left;verticalAlign=top;spacingLeft=4;spacingRight=4;overflow=hidden;rotatable=0;points=[[0,0.5],[1,0.5]];portConstraint=eastwest;fontColor=#000000;" parent="300" vertex="1">
                    <mxGeometry y="78" width="240" height="26" as="geometry"/>
                </mxCell>
                <mxCell id="303" value="Balance" style="text;strokeColor=#36393d;fillColor=#ffcc99;align=left;verticalAlign=top;spacingLeft=4;spacingRight=4;overflow=hidden;rotatable=0;points=[[0,0.5],[1,0.5]];portConstraint=eastwest;fontColor=#000000;" parent="300" vertex="1">
                    <mxGeometry y="104" width="240" height="26" as="geometry"/>
                </mxCell>
                <mxCell id="307" style="edgeStyle=orthogonalEdgeStyle;html=1;entryX=0;entryY=0.5;entryDx=0;entryDy=0;" parent="1" source="4" target="302" edge="1">
                    <mxGeometry relative="1" as="geometry"/>
                </mxCell>
                <mxCell id="308" value="CashOutboundMovement" style="swimlane;fontStyle=0;childLayout=stackLayout;horizontal=1;startSize=26;fillColor=#e51400;horizontalStack=0;resizeParent=1;resizeParentMax=0;resizeLast=0;collapsible=1;marginBottom=0;strokeColor=#B20000;fontColor=#ffffff;" parent="1" vertex="1">
                    <mxGeometry x="885" y="-430" width="250" height="156" as="geometry"/>
                </mxCell>
                <mxCell id="309" value="CashOutboundMovementID" style="text;strokeColor=#36393d;fillColor=#ffcc99;align=left;verticalAlign=top;spacingLeft=4;spacingRight=4;overflow=hidden;rotatable=0;points=[[0,0.5],[1,0.5]];portConstraint=eastwest;fontColor=#000000;" parent="308" vertex="1">
                    <mxGeometry y="26" width="250" height="26" as="geometry"/>
                </mxCell>
                <mxCell id="310" value="CashOutboundMovementCashAccountID" style="text;strokeColor=#36393d;fillColor=#ffcc99;align=left;verticalAlign=top;spacingLeft=4;spacingRight=4;overflow=hidden;rotatable=0;points=[[0,0.5],[1,0.5]];portConstraint=eastwest;fontColor=#000000;" parent="308" vertex="1">
                    <mxGeometry y="52" width="250" height="26" as="geometry"/>
                </mxCell>
                <mxCell id="311" value="Quantity" style="text;strokeColor=#36393d;fillColor=#ffcc99;align=left;verticalAlign=top;spacingLeft=4;spacingRight=4;overflow=hidden;rotatable=0;points=[[0,0.5],[1,0.5]];portConstraint=eastwest;fontColor=#000000;" parent="308" vertex="1">
                    <mxGeometry y="78" width="250" height="26" as="geometry"/>
                </mxCell>
                <mxCell id="312" value="MovementDate" style="text;strokeColor=#36393d;fillColor=#ffcc99;align=left;verticalAlign=top;spacingLeft=4;spacingRight=4;overflow=hidden;rotatable=0;points=[[0,0.5],[1,0.5]];portConstraint=eastwest;fontColor=#000000;" parent="308" vertex="1">
                    <mxGeometry y="104" width="250" height="26" as="geometry"/>
                </mxCell>
                <mxCell id="314" value="Description" style="text;strokeColor=#36393d;fillColor=#ffcc99;align=left;verticalAlign=top;spacingLeft=4;spacingRight=4;overflow=hidden;rotatable=0;points=[[0,0.5],[1,0.5]];portConstraint=eastwest;fontColor=#000000;" parent="308" vertex="1">
                    <mxGeometry y="130" width="250" height="26" as="geometry"/>
                </mxCell>
                <mxCell id="315" style="edgeStyle=orthogonalEdgeStyle;html=1;entryX=0;entryY=0.5;entryDx=0;entryDy=0;" parent="1" source="301" target="310" edge="1">
                    <mxGeometry relative="1" as="geometry"/>
                </mxCell>
                <mxCell id="316" value="CashInboundMovement" style="swimlane;fontStyle=0;childLayout=stackLayout;horizontal=1;startSize=26;fillColor=#e51400;horizontalStack=0;resizeParent=1;resizeParentMax=0;resizeLast=0;collapsible=1;marginBottom=0;strokeColor=#B20000;fontColor=#ffffff;" parent="1" vertex="1">
                    <mxGeometry x="885" y="-256" width="250" height="156" as="geometry"/>
                </mxCell>
                <mxCell id="317" value="CashInboundMovementID" style="text;strokeColor=#36393d;fillColor=#ffcc99;align=left;verticalAlign=top;spacingLeft=4;spacingRight=4;overflow=hidden;rotatable=0;points=[[0,0.5],[1,0.5]];portConstraint=eastwest;fontColor=#000000;" parent="316" vertex="1">
                    <mxGeometry y="26" width="250" height="26" as="geometry"/>
                </mxCell>
                <mxCell id="318" value="CashInboundMovementCashAccountID" style="text;strokeColor=#36393d;fillColor=#ffcc99;align=left;verticalAlign=top;spacingLeft=4;spacingRight=4;overflow=hidden;rotatable=0;points=[[0,0.5],[1,0.5]];portConstraint=eastwest;fontColor=#000000;" parent="316" vertex="1">
                    <mxGeometry y="52" width="250" height="26" as="geometry"/>
                </mxCell>
                <mxCell id="319" value="Quantity" style="text;strokeColor=#36393d;fillColor=#ffcc99;align=left;verticalAlign=top;spacingLeft=4;spacingRight=4;overflow=hidden;rotatable=0;points=[[0,0.5],[1,0.5]];portConstraint=eastwest;fontColor=#000000;" parent="316" vertex="1">
                    <mxGeometry y="78" width="250" height="26" as="geometry"/>
                </mxCell>
                <mxCell id="320" value="MovementDate" style="text;strokeColor=#36393d;fillColor=#ffcc99;align=left;verticalAlign=top;spacingLeft=4;spacingRight=4;overflow=hidden;rotatable=0;points=[[0,0.5],[1,0.5]];portConstraint=eastwest;fontColor=#000000;" parent="316" vertex="1">
                    <mxGeometry y="104" width="250" height="26" as="geometry"/>
                </mxCell>
                <mxCell id="321" value="Description" style="text;strokeColor=#36393d;fillColor=#ffcc99;align=left;verticalAlign=top;spacingLeft=4;spacingRight=4;overflow=hidden;rotatable=0;points=[[0,0.5],[1,0.5]];portConstraint=eastwest;fontColor=#000000;" parent="316" vertex="1">
                    <mxGeometry y="130" width="250" height="26" as="geometry"/>
                </mxCell>
                <mxCell id="322" style="edgeStyle=orthogonalEdgeStyle;html=1;" parent="1" source="301" target="318" edge="1">
                    <mxGeometry relative="1" as="geometry"/>
                </mxCell>
                <mxCell id="323" value="ClosingCommitmentExpense" style="swimlane;fontStyle=0;childLayout=stackLayout;horizontal=1;startSize=26;fillColor=#e51400;horizontalStack=0;resizeParent=1;resizeParentMax=0;resizeLast=0;collapsible=1;marginBottom=0;strokeColor=#B20000;fontColor=#ffffff;" parent="1" vertex="1">
                    <mxGeometry x="1171" y="-454" width="350" height="154" as="geometry"/>
                </mxCell>
                <mxCell id="324" value="ClosingCommitmentExpenseID" style="text;strokeColor=#36393d;fillColor=#ffcc99;align=left;verticalAlign=top;spacingLeft=4;spacingRight=4;overflow=hidden;rotatable=0;points=[[0,0.5],[1,0.5]];portConstraint=eastwest;fontColor=#000000;" parent="323" vertex="1">
                    <mxGeometry y="26" width="350" height="24" as="geometry"/>
                </mxCell>
                <mxCell id="325" value="ClosingCommitmentExpenseCashOutboundMovementID" style="text;strokeColor=#36393d;fillColor=#ffcc99;align=left;verticalAlign=top;spacingLeft=4;spacingRight=4;overflow=hidden;rotatable=0;points=[[0,0.5],[1,0.5]];portConstraint=eastwest;fontColor=#000000;" parent="323" vertex="1">
                    <mxGeometry y="50" width="350" height="26" as="geometry"/>
                </mxCell>
                <mxCell id="326" value="ClosingCommitmentExpenseFinacialCommitmentID" style="text;strokeColor=#36393d;fillColor=#ffcc99;align=left;verticalAlign=top;spacingLeft=4;spacingRight=4;overflow=hidden;rotatable=0;points=[[0,0.5],[1,0.5]];portConstraint=eastwest;fontColor=#000000;" parent="323" vertex="1">
                    <mxGeometry y="76" width="350" height="26" as="geometry"/>
                </mxCell>
                <mxCell id="327" value="ClosingDate" style="text;strokeColor=#36393d;fillColor=#ffcc99;align=left;verticalAlign=top;spacingLeft=4;spacingRight=4;overflow=hidden;rotatable=0;points=[[0,0.5],[1,0.5]];portConstraint=eastwest;fontColor=#000000;" parent="323" vertex="1">
                    <mxGeometry y="102" width="350" height="26" as="geometry"/>
                </mxCell>
                <mxCell id="328" value="Description" style="text;strokeColor=#36393d;fillColor=#ffcc99;align=left;verticalAlign=top;spacingLeft=4;spacingRight=4;overflow=hidden;rotatable=0;points=[[0,0.5],[1,0.5]];portConstraint=eastwest;fontColor=#000000;" parent="323" vertex="1">
                    <mxGeometry y="128" width="350" height="26" as="geometry"/>
                </mxCell>
                <mxCell id="329" value="ClosingCommitmentIncome" style="swimlane;fontStyle=0;childLayout=stackLayout;horizontal=1;startSize=26;fillColor=#e51400;horizontalStack=0;resizeParent=1;resizeParentMax=0;resizeLast=0;collapsible=1;marginBottom=0;strokeColor=#B20000;fontColor=#ffffff;" parent="1" vertex="1">
                    <mxGeometry x="1171" y="-280" width="350" height="154" as="geometry"/>
                </mxCell>
                <mxCell id="330" value="ClosingCommitmentIncomeID" style="text;strokeColor=#36393d;fillColor=#ffcc99;align=left;verticalAlign=top;spacingLeft=4;spacingRight=4;overflow=hidden;rotatable=0;points=[[0,0.5],[1,0.5]];portConstraint=eastwest;fontColor=#000000;" parent="329" vertex="1">
                    <mxGeometry y="26" width="350" height="24" as="geometry"/>
                </mxCell>
                <mxCell id="331" value="ClosingCommitmentIncomeCashOutboundMovementID" style="text;strokeColor=#36393d;fillColor=#ffcc99;align=left;verticalAlign=top;spacingLeft=4;spacingRight=4;overflow=hidden;rotatable=0;points=[[0,0.5],[1,0.5]];portConstraint=eastwest;fontColor=#000000;" parent="329" vertex="1">
                    <mxGeometry y="50" width="350" height="26" as="geometry"/>
                </mxCell>
                <mxCell id="332" value="ClosingCommitmentIncomeFinacialCommitmentID" style="text;strokeColor=#36393d;fillColor=#ffcc99;align=left;verticalAlign=top;spacingLeft=4;spacingRight=4;overflow=hidden;rotatable=0;points=[[0,0.5],[1,0.5]];portConstraint=eastwest;fontColor=#000000;" parent="329" vertex="1">
                    <mxGeometry y="76" width="350" height="26" as="geometry"/>
                </mxCell>
                <mxCell id="333" value="ClosingDate" style="text;strokeColor=#36393d;fillColor=#ffcc99;align=left;verticalAlign=top;spacingLeft=4;spacingRight=4;overflow=hidden;rotatable=0;points=[[0,0.5],[1,0.5]];portConstraint=eastwest;fontColor=#000000;" parent="329" vertex="1">
                    <mxGeometry y="102" width="350" height="26" as="geometry"/>
                </mxCell>
                <mxCell id="334" value="Description" style="text;strokeColor=#36393d;fillColor=#ffcc99;align=left;verticalAlign=top;spacingLeft=4;spacingRight=4;overflow=hidden;rotatable=0;points=[[0,0.5],[1,0.5]];portConstraint=eastwest;fontColor=#000000;" parent="329" vertex="1">
                    <mxGeometry y="128" width="350" height="26" as="geometry"/>
                </mxCell>
                <mxCell id="335" style="edgeStyle=orthogonalEdgeStyle;html=1;entryX=0;entryY=0.5;entryDx=0;entryDy=0;" parent="1" source="309" target="325" edge="1">
                    <mxGeometry relative="1" as="geometry"/>
                </mxCell>
                <mxCell id="336" style="edgeStyle=orthogonalEdgeStyle;html=1;entryX=0;entryY=0.5;entryDx=0;entryDy=0;" parent="1" source="317" target="331" edge="1">
                    <mxGeometry relative="1" as="geometry"/>
                </mxCell>
                <mxCell id="337" value="FinancialCommitment" style="swimlane;fontStyle=0;childLayout=stackLayout;horizontal=1;startSize=26;fillColor=#e51400;horizontalStack=0;resizeParent=1;resizeParentMax=0;resizeLast=0;collapsible=1;marginBottom=0;strokeColor=#B20000;fontColor=#ffffff;" parent="1" vertex="1">
                    <mxGeometry x="1600" y="-309" width="350" height="206" as="geometry"/>
                </mxCell>
                <mxCell id="338" value="FinacialCommitmentID" style="text;strokeColor=#36393d;fillColor=#ffcc99;align=left;verticalAlign=top;spacingLeft=4;spacingRight=4;overflow=hidden;rotatable=0;points=[[0,0.5],[1,0.5]];portConstraint=eastwest;fontColor=#000000;" parent="337" vertex="1">
                    <mxGeometry y="26" width="350" height="24" as="geometry"/>
                </mxCell>
                <mxCell id="339" value="FinancialCommitmentFinancialCommitmentTypeID" style="text;strokeColor=#36393d;fillColor=#ffcc99;align=left;verticalAlign=top;spacingLeft=4;spacingRight=4;overflow=hidden;rotatable=0;points=[[0,0.5],[1,0.5]];portConstraint=eastwest;fontColor=#000000;" parent="337" vertex="1">
                    <mxGeometry y="50" width="350" height="26" as="geometry"/>
                </mxCell>
                <mxCell id="340" value="FinancialCommitmentUserID" style="text;strokeColor=#36393d;fillColor=#ffcc99;align=left;verticalAlign=top;spacingLeft=4;spacingRight=4;overflow=hidden;rotatable=0;points=[[0,0.5],[1,0.5]];portConstraint=eastwest;fontColor=#000000;" parent="337" vertex="1">
                    <mxGeometry y="76" width="350" height="26" as="geometry"/>
                </mxCell>
                <mxCell id="341" value="Quantity" style="text;strokeColor=#36393d;fillColor=#ffcc99;align=left;verticalAlign=top;spacingLeft=4;spacingRight=4;overflow=hidden;rotatable=0;points=[[0,0.5],[1,0.5]];portConstraint=eastwest;fontColor=#000000;" parent="337" vertex="1">
                    <mxGeometry y="102" width="350" height="26" as="geometry"/>
                </mxCell>
                <mxCell id="342" value="Paid" style="text;strokeColor=#36393d;fillColor=#ffcc99;align=left;verticalAlign=top;spacingLeft=4;spacingRight=4;overflow=hidden;rotatable=0;points=[[0,0.5],[1,0.5]];portConstraint=eastwest;fontColor=#000000;" parent="337" vertex="1">
                    <mxGeometry y="128" width="350" height="26" as="geometry"/>
                </mxCell>
                <mxCell id="575" value="Date" style="text;strokeColor=#36393d;fillColor=#ffcc99;align=left;verticalAlign=top;spacingLeft=4;spacingRight=4;overflow=hidden;rotatable=0;points=[[0,0.5],[1,0.5]];portConstraint=eastwest;fontColor=#000000;" vertex="1" parent="337">
                    <mxGeometry y="154" width="350" height="26" as="geometry"/>
                </mxCell>
                <mxCell id="350" value="Description" style="text;strokeColor=#36393d;fillColor=#ffcc99;align=left;verticalAlign=top;spacingLeft=4;spacingRight=4;overflow=hidden;rotatable=0;points=[[0,0.5],[1,0.5]];portConstraint=eastwest;fontColor=#000000;" parent="337" vertex="1">
                    <mxGeometry y="180" width="350" height="26" as="geometry"/>
                </mxCell>
                <mxCell id="343" style="edgeStyle=orthogonalEdgeStyle;html=1;entryX=1;entryY=0.5;entryDx=0;entryDy=0;" parent="1" source="338" target="326" edge="1">
                    <mxGeometry relative="1" as="geometry">
                        <mxPoint x="1580" y="-342" as="targetPoint"/>
                    </mxGeometry>
                </mxCell>
                <mxCell id="344" style="edgeStyle=orthogonalEdgeStyle;html=1;" parent="1" source="338" target="332" edge="1">
                    <mxGeometry relative="1" as="geometry"/>
                </mxCell>
                <mxCell id="347" style="edgeStyle=orthogonalEdgeStyle;html=1;entryX=0;entryY=0.5;entryDx=0;entryDy=0;" parent="1" source="4" target="340" edge="1">
                    <mxGeometry relative="1" as="geometry">
                        <Array as="points">
                            <mxPoint x="580" y="335"/>
                            <mxPoint x="580" y="-90"/>
                            <mxPoint x="1570" y="-90"/>
                            <mxPoint x="1570" y="-221"/>
                        </Array>
                    </mxGeometry>
                </mxCell>
                <mxCell id="351" value="FinancialCommitmentType" style="swimlane;fontStyle=0;childLayout=stackLayout;horizontal=1;startSize=26;fillColor=#e51400;horizontalStack=0;resizeParent=1;resizeParentMax=0;resizeLast=0;collapsible=1;marginBottom=0;strokeColor=#B20000;gradientDirection=south;swimlaneFillColor=default;fontColor=#ffffff;" parent="1" vertex="1">
                    <mxGeometry x="1990" y="-285" width="240" height="78" as="geometry"/>
                </mxCell>
                <mxCell id="352" value="FinancialCommitmentTypeID" style="text;strokeColor=#36393d;fillColor=#ffcc99;align=left;verticalAlign=top;spacingLeft=4;spacingRight=4;overflow=hidden;rotatable=0;points=[[0,0.5],[1,0.5]];portConstraint=eastwest;fontColor=#000000;" parent="351" vertex="1">
                    <mxGeometry y="26" width="240" height="26" as="geometry"/>
                </mxCell>
                <mxCell id="353" value="Type" style="text;strokeColor=#36393d;fillColor=#ffcc99;align=left;verticalAlign=top;spacingLeft=4;spacingRight=4;overflow=hidden;rotatable=0;points=[[0,0.5],[1,0.5]];portConstraint=eastwest;fontColor=#000000;" parent="351" vertex="1">
                    <mxGeometry y="52" width="240" height="26" as="geometry"/>
                </mxCell>
                <mxCell id="358" style="edgeStyle=orthogonalEdgeStyle;html=1;entryX=1;entryY=0.5;entryDx=0;entryDy=0;" parent="1" source="352" target="339" edge="1">
                    <mxGeometry relative="1" as="geometry"/>
                </mxCell>
                <mxCell id="359" value="Kinship" style="swimlane;fontStyle=0;childLayout=stackLayout;horizontal=1;startSize=26;fillColor=#ffcd28;horizontalStack=0;resizeParent=1;resizeParentMax=0;resizeLast=0;collapsible=1;marginBottom=0;strokeColor=#d79b00;gradientColor=#ffa500;" parent="1" vertex="1">
                    <mxGeometry x="610" y="-230" width="240" height="130" as="geometry"/>
                </mxCell>
                <mxCell id="360" value="KinshipID" style="text;strokeColor=#36393d;fillColor=#ffcc99;align=left;verticalAlign=top;spacingLeft=4;spacingRight=4;overflow=hidden;rotatable=0;points=[[0,0.5],[1,0.5]];portConstraint=eastwest;fontColor=#000000;" parent="359" vertex="1">
                    <mxGeometry y="26" width="240" height="26" as="geometry"/>
                </mxCell>
                <mxCell id="361" value="User1ID" style="text;strokeColor=#36393d;fillColor=#ffcc99;align=left;verticalAlign=top;spacingLeft=4;spacingRight=4;overflow=hidden;rotatable=0;points=[[0,0.5],[1,0.5]];portConstraint=eastwest;fontColor=#000000;" parent="359" vertex="1">
                    <mxGeometry y="52" width="240" height="26" as="geometry"/>
                </mxCell>
                <mxCell id="362" value="User2ID" style="text;strokeColor=#36393d;fillColor=#ffcc99;align=left;verticalAlign=top;spacingLeft=4;spacingRight=4;overflow=hidden;rotatable=0;points=[[0,0.5],[1,0.5]];portConstraint=eastwest;fontColor=#000000;" parent="359" vertex="1">
                    <mxGeometry y="78" width="240" height="26" as="geometry"/>
                </mxCell>
                <mxCell id="363" value="KinshipID" style="text;strokeColor=#36393d;fillColor=#ffcc99;align=left;verticalAlign=top;spacingLeft=4;spacingRight=4;overflow=hidden;rotatable=0;points=[[0,0.5],[1,0.5]];portConstraint=eastwest;fontColor=#000000;" parent="359" vertex="1">
                    <mxGeometry y="104" width="240" height="26" as="geometry"/>
                </mxCell>
                <mxCell id="364" style="edgeStyle=orthogonalEdgeStyle;html=1;entryX=0;entryY=0.5;entryDx=0;entryDy=0;" parent="1" source="4" target="361" edge="1">
                    <mxGeometry relative="1" as="geometry"/>
                </mxCell>
                <mxCell id="365" style="edgeStyle=orthogonalEdgeStyle;html=1;entryX=0;entryY=0.5;entryDx=0;entryDy=0;" parent="1" source="4" target="362" edge="1">
                    <mxGeometry relative="1" as="geometry"/>
                </mxCell>
                <mxCell id="366" value="Sex" style="swimlane;fontStyle=0;childLayout=stackLayout;horizontal=1;startSize=26;fillColor=#f8cecc;horizontalStack=0;resizeParent=1;resizeParentMax=0;resizeLast=0;collapsible=1;marginBottom=0;strokeColor=#b85450;gradientColor=#ea6b66;" parent="1" vertex="1">
                    <mxGeometry x="610" y="444" width="240" height="78" as="geometry"/>
                </mxCell>
                <mxCell id="367" value="SexID" style="text;strokeColor=#36393d;fillColor=#ffcc99;align=left;verticalAlign=top;spacingLeft=4;spacingRight=4;overflow=hidden;rotatable=0;points=[[0,0.5],[1,0.5]];portConstraint=eastwest;fontColor=#000000;" parent="366" vertex="1">
                    <mxGeometry y="26" width="240" height="26" as="geometry"/>
                </mxCell>
                <mxCell id="368" value="Sex" style="text;strokeColor=#36393d;fillColor=#ffcc99;align=left;verticalAlign=top;spacingLeft=4;spacingRight=4;overflow=hidden;rotatable=0;points=[[0,0.5],[1,0.5]];portConstraint=eastwest;fontColor=#000000;" parent="366" vertex="1">
                    <mxGeometry y="52" width="240" height="26" as="geometry"/>
                </mxCell>
                <mxCell id="376" style="edgeStyle=orthogonalEdgeStyle;html=1;fontColor=default;exitX=0;exitY=0.5;exitDx=0;exitDy=0;" parent="1" source="372" target="258" edge="1">
                    <mxGeometry relative="1" as="geometry">
                        <Array as="points">
                            <mxPoint x="1860" y="155"/>
                            <mxPoint x="1860" y="100"/>
                            <mxPoint x="1580" y="100"/>
                            <mxPoint x="1580" y="67"/>
                        </Array>
                    </mxGeometry>
                </mxCell>
                <mxCell id="371" value="CourseType" style="swimlane;fontStyle=0;childLayout=stackLayout;horizontal=1;startSize=26;fillColor=#fa6800;horizontalStack=0;resizeParent=1;resizeParentMax=0;resizeLast=0;collapsible=1;marginBottom=0;strokeColor=#C73500;fontColor=#000000;" parent="1" vertex="1">
                    <mxGeometry x="1870" y="116" width="240" height="78" as="geometry"/>
                </mxCell>
                <mxCell id="372" value="CourseTypeID" style="text;strokeColor=#36393d;fillColor=#ffcc99;align=left;verticalAlign=top;spacingLeft=4;spacingRight=4;overflow=hidden;rotatable=0;points=[[0,0.5],[1,0.5]];portConstraint=eastwest;fontColor=#000000;" parent="371" vertex="1">
                    <mxGeometry y="26" width="240" height="26" as="geometry"/>
                </mxCell>
                <mxCell id="373" value="CourseType" style="text;strokeColor=#36393d;fillColor=#ffcc99;align=left;verticalAlign=top;spacingLeft=4;spacingRight=4;overflow=hidden;rotatable=0;points=[[0,0.5],[1,0.5]];portConstraint=eastwest;fontColor=#000000;" parent="371" vertex="1">
                    <mxGeometry y="52" width="240" height="26" as="geometry"/>
                </mxCell>
                <mxCell id="375" style="edgeStyle=orthogonalEdgeStyle;html=1;fontColor=default;exitX=0;exitY=0.5;exitDx=0;exitDy=0;" parent="1" source="367" target="9" edge="1">
                    <mxGeometry relative="1" as="geometry">
                        <Array as="points">
                            <mxPoint x="600" y="483"/>
                            <mxPoint x="600" y="413"/>
                        </Array>
                    </mxGeometry>
                </mxCell>
                <mxCell id="377" value="TransactionsBetweenAccounts" style="swimlane;fontStyle=0;childLayout=stackLayout;horizontal=1;startSize=26;fillColor=#e51400;horizontalStack=0;resizeParent=1;resizeParentMax=0;resizeLast=0;collapsible=1;marginBottom=0;strokeColor=#B20000;fontColor=#ffffff;" parent="1" vertex="1">
                    <mxGeometry x="885" y="-600" width="250" height="156" as="geometry"/>
                </mxCell>
                <mxCell id="378" value="TransactionsBetweenAccountsID" style="text;strokeColor=#36393d;fillColor=#ffcc99;align=left;verticalAlign=top;spacingLeft=4;spacingRight=4;overflow=hidden;rotatable=0;points=[[0,0.5],[1,0.5]];portConstraint=eastwest;fontColor=#000000;" parent="377" vertex="1">
                    <mxGeometry y="26" width="250" height="26" as="geometry"/>
                </mxCell>
                <mxCell id="379" value="OutboundTransactionID" style="text;strokeColor=#36393d;fillColor=#ffcc99;align=left;verticalAlign=top;spacingLeft=4;spacingRight=4;overflow=hidden;rotatable=0;points=[[0,0.5],[1,0.5]];portConstraint=eastwest;fontColor=#000000;" parent="377" vertex="1">
                    <mxGeometry y="52" width="250" height="26" as="geometry"/>
                </mxCell>
                <mxCell id="380" value="InboundTransactionID" style="text;strokeColor=#36393d;fillColor=#ffcc99;align=left;verticalAlign=top;spacingLeft=4;spacingRight=4;overflow=hidden;rotatable=0;points=[[0,0.5],[1,0.5]];portConstraint=eastwest;fontColor=#000000;" parent="377" vertex="1">
                    <mxGeometry y="78" width="250" height="26" as="geometry"/>
                </mxCell>
                <mxCell id="381" value="MovementDate" style="text;strokeColor=#36393d;fillColor=#ffcc99;align=left;verticalAlign=top;spacingLeft=4;spacingRight=4;overflow=hidden;rotatable=0;points=[[0,0.5],[1,0.5]];portConstraint=eastwest;fontColor=#000000;" parent="377" vertex="1">
                    <mxGeometry y="104" width="250" height="26" as="geometry"/>
                </mxCell>
                <mxCell id="382" value="Description" style="text;strokeColor=#36393d;fillColor=#ffcc99;align=left;verticalAlign=top;spacingLeft=4;spacingRight=4;overflow=hidden;rotatable=0;points=[[0,0.5],[1,0.5]];portConstraint=eastwest;fontColor=#000000;" parent="377" vertex="1">
                    <mxGeometry y="130" width="250" height="26" as="geometry"/>
                </mxCell>
                <mxCell id="383" style="edgeStyle=orthogonalEdgeStyle;html=1;entryX=0;entryY=0.5;entryDx=0;entryDy=0;fontColor=default;exitX=0;exitY=0.5;exitDx=0;exitDy=0;" parent="1" source="309" target="379" edge="1">
                    <mxGeometry relative="1" as="geometry">
                        <Array as="points">
                            <mxPoint x="870" y="-391"/>
                            <mxPoint x="870" y="-535"/>
                        </Array>
                    </mxGeometry>
                </mxCell>
                <mxCell id="385" style="edgeStyle=orthogonalEdgeStyle;html=1;entryX=1;entryY=0.5;entryDx=0;entryDy=0;fontColor=default;exitX=1;exitY=0.5;exitDx=0;exitDy=0;" parent="1" source="317" target="380" edge="1">
                    <mxGeometry relative="1" as="geometry">
                        <Array as="points">
                            <mxPoint x="1150" y="-217"/>
                            <mxPoint x="1150" y="-509"/>
                        </Array>
                    </mxGeometry>
                </mxCell>
                <mxCell id="388" value="BooksInventory" style="swimlane;fontStyle=0;childLayout=stackLayout;horizontal=1;startSize=26;fillColor=#fa6800;horizontalStack=0;resizeParent=1;resizeParentMax=0;resizeLast=0;collapsible=1;marginBottom=0;strokeColor=#C73500;gradientDirection=south;swimlaneFillColor=default;fontColor=#000000;" parent="1" vertex="1">
                    <mxGeometry x="2140" y="-50" width="240" height="208" as="geometry"/>
                </mxCell>
                <mxCell id="389" value="BookInventoryID" style="text;strokeColor=#36393d;fillColor=#ffcc99;align=left;verticalAlign=top;spacingLeft=4;spacingRight=4;overflow=hidden;rotatable=0;points=[[0,0.5],[1,0.5]];portConstraint=eastwest;fontColor=#000000;" parent="388" vertex="1">
                    <mxGeometry y="26" width="240" height="26" as="geometry"/>
                </mxCell>
                <mxCell id="390" value="BookInventoryBookID" style="text;strokeColor=#36393d;fillColor=#ffcc99;align=left;verticalAlign=top;spacingLeft=4;spacingRight=4;overflow=hidden;rotatable=0;points=[[0,0.5],[1,0.5]];portConstraint=eastwest;fontColor=#000000;" parent="388" vertex="1">
                    <mxGeometry y="52" width="240" height="26" as="geometry"/>
                </mxCell>
                <mxCell id="391" value="BookInventoryUserRolID" style="text;strokeColor=#36393d;fillColor=#ffcc99;align=left;verticalAlign=top;spacingLeft=4;spacingRight=4;overflow=hidden;rotatable=0;points=[[0,0.5],[1,0.5]];portConstraint=eastwest;fontColor=#000000;" parent="388" vertex="1">
                    <mxGeometry y="78" width="240" height="26" as="geometry"/>
                </mxCell>
                <mxCell id="392" value="InventoryMovementTypeID" style="text;strokeColor=#36393d;fillColor=#ffcc99;align=left;verticalAlign=top;spacingLeft=4;spacingRight=4;overflow=hidden;rotatable=0;points=[[0,0.5],[1,0.5]];portConstraint=eastwest;fontColor=#000000;" parent="388" vertex="1">
                    <mxGeometry y="104" width="240" height="26" as="geometry"/>
                </mxCell>
                <mxCell id="400" value="Quantity" style="text;strokeColor=#36393d;fillColor=#ffcc99;align=left;verticalAlign=top;spacingLeft=4;spacingRight=4;overflow=hidden;rotatable=0;points=[[0,0.5],[1,0.5]];portConstraint=eastwest;fontColor=#000000;" parent="388" vertex="1">
                    <mxGeometry y="130" width="240" height="26" as="geometry"/>
                </mxCell>
                <mxCell id="401" value="Stock" style="text;strokeColor=#36393d;fillColor=#ffcc99;align=left;verticalAlign=top;spacingLeft=4;spacingRight=4;overflow=hidden;rotatable=0;points=[[0,0.5],[1,0.5]];portConstraint=eastwest;fontColor=#000000;" parent="388" vertex="1">
                    <mxGeometry y="156" width="240" height="26" as="geometry"/>
                </mxCell>
                <mxCell id="394" value="Date" style="text;strokeColor=#36393d;fillColor=#ffcc99;align=left;verticalAlign=top;spacingLeft=4;spacingRight=4;overflow=hidden;rotatable=0;points=[[0,0.5],[1,0.5]];portConstraint=eastwest;fontColor=#000000;" parent="388" vertex="1">
                    <mxGeometry y="182" width="240" height="26" as="geometry"/>
                </mxCell>
                <mxCell id="395" style="edgeStyle=orthogonalEdgeStyle;html=1;fontColor=default;" parent="1" source="242" target="390" edge="1">
                    <mxGeometry relative="1" as="geometry"/>
                </mxCell>
                <mxCell id="396" value="InventoryMovementType" style="swimlane;fontStyle=0;childLayout=stackLayout;horizontal=1;startSize=26;fillColor=#fa6800;horizontalStack=0;resizeParent=1;resizeParentMax=0;resizeLast=0;collapsible=1;marginBottom=0;strokeColor=#C73500;fontColor=#000000;" parent="1" vertex="1">
                    <mxGeometry x="2410" y="28" width="240" height="78" as="geometry"/>
                </mxCell>
                <mxCell id="397" value="InventoryMovementTypeID" style="text;strokeColor=#36393d;fillColor=#ffcc99;align=left;verticalAlign=top;spacingLeft=4;spacingRight=4;overflow=hidden;rotatable=0;points=[[0,0.5],[1,0.5]];portConstraint=eastwest;fontColor=#000000;" parent="396" vertex="1">
                    <mxGeometry y="26" width="240" height="26" as="geometry"/>
                </mxCell>
                <mxCell id="398" value="Type" style="text;strokeColor=#36393d;fillColor=#ffcc99;align=left;verticalAlign=top;spacingLeft=4;spacingRight=4;overflow=hidden;rotatable=0;points=[[0,0.5],[1,0.5]];portConstraint=eastwest;fontColor=#000000;" parent="396" vertex="1">
                    <mxGeometry y="52" width="240" height="26" as="geometry"/>
                </mxCell>
                <mxCell id="399" value="" style="edgeStyle=orthogonalEdgeStyle;html=1;fontColor=default;entryX=1;entryY=0.5;entryDx=0;entryDy=0;" parent="1" source="397" target="392" edge="1">
                    <mxGeometry relative="1" as="geometry"/>
                </mxCell>
                <mxCell id="402" style="edgeStyle=orthogonalEdgeStyle;html=1;entryX=0;entryY=0.5;entryDx=0;entryDy=0;fontColor=default;" parent="1" edge="1">
                    <mxGeometry relative="1" as="geometry">
                        <Array as="points">
                            <mxPoint x="1170" y="212"/>
                            <mxPoint x="1170" y="380"/>
                            <mxPoint x="2120" y="380"/>
                            <mxPoint x="2120" y="43"/>
                        </Array>
                        <mxPoint x="850" y="212" as="sourcePoint"/>
                        <mxPoint x="2140" y="43" as="targetPoint"/>
                    </mxGeometry>
                </mxCell>
                <mxCell id="412" style="edgeStyle=orthogonalEdgeStyle;html=1;entryX=1;entryY=0.5;entryDx=0;entryDy=0;exitX=1;exitY=0.5;exitDx=0;exitDy=0;" parent="1" source="102" target="11" edge="1">
                    <mxGeometry relative="1" as="geometry">
                        <Array as="points">
                            <mxPoint x="580" y="639"/>
                            <mxPoint x="580" y="465"/>
                        </Array>
                    </mxGeometry>
                </mxCell>
                <mxCell id="413" value="" style="sketch=0;html=1;aspect=fixed;strokeColor=none;shadow=0;align=center;verticalAlign=top;fillColor=#2D9C5E;shape=mxgraph.gcp2.check" parent="1" vertex="1">
                    <mxGeometry x="550" y="293" width="25" height="20" as="geometry"/>
                </mxCell>
                <mxCell id="443" style="edgeStyle=orthogonalEdgeStyle;html=1;entryX=1;entryY=0.5;entryDx=0;entryDy=0;exitX=0;exitY=0.5;exitDx=0;exitDy=0;" parent="1" source="129" target="147" edge="1">
                    <mxGeometry relative="1" as="geometry">
                        <Array as="points">
                            <mxPoint x="1440" y="628"/>
                        </Array>
                    </mxGeometry>
                </mxCell>
                <mxCell id="451" style="edgeStyle=orthogonalEdgeStyle;html=1;exitX=0;exitY=0.5;exitDx=0;exitDy=0;entryX=1;entryY=0.5;entryDx=0;entryDy=0;" parent="1" source="4" target="447" edge="1">
                    <mxGeometry relative="1" as="geometry">
                        <Array as="points">
                            <mxPoint x="300" y="335"/>
                            <mxPoint x="300" y="260"/>
                            <mxPoint x="30" y="260"/>
                            <mxPoint x="30" y="154"/>
                        </Array>
                    </mxGeometry>
                </mxCell>
                <mxCell id="452" style="edgeStyle=orthogonalEdgeStyle;html=1;entryX=1;entryY=0.5;entryDx=0;entryDy=0;" parent="1" source="4" target="448" edge="1">
                    <mxGeometry relative="1" as="geometry">
                        <Array as="points">
                            <mxPoint x="300" y="335"/>
                            <mxPoint x="300" y="410"/>
                            <mxPoint x="30" y="410"/>
                            <mxPoint x="30" y="324"/>
                        </Array>
                    </mxGeometry>
                </mxCell>
                <mxCell id="453" style="edgeStyle=orthogonalEdgeStyle;html=1;entryX=1;entryY=0.5;entryDx=0;entryDy=0;" parent="1" source="4" target="449" edge="1">
                    <mxGeometry relative="1" as="geometry">
                        <Array as="points">
                            <mxPoint x="300" y="335"/>
                            <mxPoint x="300" y="580"/>
                            <mxPoint x="30" y="580"/>
                            <mxPoint x="30" y="497"/>
                        </Array>
                    </mxGeometry>
                </mxCell>
                <mxCell id="504" value="ChangesLogs" style="swimlane;fontStyle=0;childLayout=stackLayout;horizontal=1;startSize=26;fillColor=#1ba1e2;horizontalStack=0;resizeParent=1;resizeParentMax=0;resizeLast=0;collapsible=1;marginBottom=0;strokeColor=#006EAF;fontColor=#ffffff;" parent="1" vertex="1">
                    <mxGeometry x="320" y="100" width="240" height="182" as="geometry"/>
                </mxCell>
                <mxCell id="505" value="LogsID" style="text;strokeColor=#23445d;fillColor=#bac8d3;align=left;verticalAlign=top;spacingLeft=4;spacingRight=4;overflow=hidden;rotatable=0;points=[[0,0.5],[1,0.5]];portConstraint=eastwest;" parent="504" vertex="1">
                    <mxGeometry y="26" width="240" height="26" as="geometry"/>
                </mxCell>
                <mxCell id="506" value="UserIDLog" style="text;strokeColor=#23445d;fillColor=#bac8d3;align=left;verticalAlign=top;spacingLeft=4;spacingRight=4;overflow=hidden;rotatable=0;points=[[0,0.5],[1,0.5]];portConstraint=eastwest;" parent="504" vertex="1">
                    <mxGeometry y="52" width="240" height="26" as="geometry"/>
                </mxCell>
                <mxCell id="507" value="TableNameID" style="text;strokeColor=#23445d;fillColor=#bac8d3;align=left;verticalAlign=top;spacingLeft=4;spacingRight=4;overflow=hidden;rotatable=0;points=[[0,0.5],[1,0.5]];portConstraint=eastwest;" parent="504" vertex="1">
                    <mxGeometry y="78" width="240" height="26" as="geometry"/>
                </mxCell>
                <mxCell id="513" value="TableAction" style="text;strokeColor=#23445d;fillColor=#bac8d3;align=left;verticalAlign=top;spacingLeft=4;spacingRight=4;overflow=hidden;rotatable=0;points=[[0,0.5],[1,0.5]];portConstraint=eastwest;" parent="504" vertex="1">
                    <mxGeometry y="104" width="240" height="26" as="geometry"/>
                </mxCell>
                <mxCell id="511" value="DateTime" style="text;strokeColor=#23445d;fillColor=#bac8d3;align=left;verticalAlign=top;spacingLeft=4;spacingRight=4;overflow=hidden;rotatable=0;points=[[0,0.5],[1,0.5]];portConstraint=eastwest;" parent="504" vertex="1">
                    <mxGeometry y="130" width="240" height="26" as="geometry"/>
                </mxCell>
                <mxCell id="508" value="Change" style="text;strokeColor=#23445d;fillColor=#bac8d3;align=left;verticalAlign=top;spacingLeft=4;spacingRight=4;overflow=hidden;rotatable=0;points=[[0,0.5],[1,0.5]];portConstraint=eastwest;" parent="504" vertex="1">
                    <mxGeometry y="156" width="240" height="26" as="geometry"/>
                </mxCell>
                <mxCell id="510" style="edgeStyle=orthogonalEdgeStyle;html=1;entryX=0;entryY=0.5;entryDx=0;entryDy=0;" parent="1" source="4" target="506" edge="1">
                    <mxGeometry relative="1" as="geometry">
                        <Array as="points">
                            <mxPoint x="300" y="335"/>
                            <mxPoint x="300" y="165"/>
                        </Array>
                    </mxGeometry>
                </mxCell>
                <mxCell id="512" style="edgeStyle=orthogonalEdgeStyle;html=1;entryX=1;entryY=0.5;entryDx=0;entryDy=0;exitX=0;exitY=0.5;exitDx=0;exitDy=0;" parent="1" source="27" target="65" edge="1">
                    <mxGeometry relative="1" as="geometry">
                        <Array as="points">
                            <mxPoint x="20" y="162"/>
                            <mxPoint x="20" y="128"/>
                        </Array>
                    </mxGeometry>
                </mxCell>
                <mxCell id="521" value="TableName" style="swimlane;fontStyle=0;childLayout=stackLayout;horizontal=1;startSize=26;fillColor=#1ba1e2;horizontalStack=0;resizeParent=1;resizeParentMax=0;resizeLast=0;collapsible=1;marginBottom=0;strokeColor=#006EAF;fontColor=#ffffff;" parent="1" vertex="1">
                    <mxGeometry x="320" y="14" width="240" height="78" as="geometry"/>
                </mxCell>
                <mxCell id="522" value="TableNameID" style="text;strokeColor=#23445d;fillColor=#bac8d3;align=left;verticalAlign=top;spacingLeft=4;spacingRight=4;overflow=hidden;rotatable=0;points=[[0,0.5],[1,0.5]];portConstraint=eastwest;" parent="521" vertex="1">
                    <mxGeometry y="26" width="240" height="26" as="geometry"/>
                </mxCell>
                <mxCell id="523" value="TableName" style="text;strokeColor=#23445d;fillColor=#bac8d3;align=left;verticalAlign=top;spacingLeft=4;spacingRight=4;overflow=hidden;rotatable=0;points=[[0,0.5],[1,0.5]];portConstraint=eastwest;" parent="521" vertex="1">
                    <mxGeometry y="52" width="240" height="26" as="geometry"/>
                </mxCell>
                <mxCell id="529" style="edgeStyle=orthogonalEdgeStyle;html=1;entryX=1;entryY=0.5;entryDx=0;entryDy=0;" parent="1" source="507" target="521" edge="1">
                    <mxGeometry relative="1" as="geometry">
                        <Array as="points">
                            <mxPoint x="570" y="191"/>
                            <mxPoint x="570" y="53"/>
                        </Array>
                    </mxGeometry>
                </mxCell>
                <mxCell id="530" style="edgeStyle=orthogonalEdgeStyle;html=1;entryX=1;entryY=0.5;entryDx=0;entryDy=0;" parent="1" source="4" target="450" edge="1">
                    <mxGeometry relative="1" as="geometry">
                        <mxPoint y="650" as="targetPoint"/>
                        <Array as="points">
                            <mxPoint x="300" y="335"/>
                            <mxPoint x="300" y="720"/>
                            <mxPoint x="30" y="720"/>
                            <mxPoint x="30" y="664"/>
                        </Array>
                    </mxGeometry>
                </mxCell>
                <mxCell id="531" style="edgeStyle=orthogonalEdgeStyle;html=1;entryX=0;entryY=0.5;entryDx=0;entryDy=0;" parent="1" source="124" target="130" edge="1">
                    <mxGeometry relative="1" as="geometry"/>
                </mxCell>
                <mxCell id="536" value="" style="sketch=0;html=1;aspect=fixed;strokeColor=none;shadow=0;align=center;verticalAlign=top;fillColor=#2D9C5E;shape=mxgraph.gcp2.check" vertex="1" parent="1">
                    <mxGeometry x="550" y="601" width="25" height="20" as="geometry"/>
                </mxCell>
                <mxCell id="537" value="" style="sketch=0;html=1;aspect=fixed;strokeColor=none;shadow=0;align=center;verticalAlign=top;fillColor=#2D9C5E;shape=mxgraph.gcp2.check" vertex="1" parent="1">
                    <mxGeometry x="270" y="138" width="25" height="20" as="geometry"/>
                </mxCell>
                <mxCell id="538" value="" style="sketch=0;html=1;aspect=fixed;strokeColor=none;shadow=0;align=center;verticalAlign=top;fillColor=#2D9C5E;shape=mxgraph.gcp2.check" vertex="1" parent="1">
                    <mxGeometry x="271" y="272" width="25" height="20" as="geometry"/>
                </mxCell>
                <mxCell id="539" value="" style="sketch=0;html=1;aspect=fixed;strokeColor=none;shadow=0;align=center;verticalAlign=top;fillColor=#2D9C5E;shape=mxgraph.gcp2.check" vertex="1" parent="1">
                    <mxGeometry x="270" y="421" width="25" height="20" as="geometry"/>
                </mxCell>
                <mxCell id="540" value="" style="sketch=0;html=1;aspect=fixed;strokeColor=none;shadow=0;align=center;verticalAlign=top;fillColor=#2D9C5E;shape=mxgraph.gcp2.check" vertex="1" parent="1">
                    <mxGeometry x="270" y="586" width="25" height="20" as="geometry"/>
                </mxCell>
                <mxCell id="541" value="" style="sketch=0;html=1;aspect=fixed;strokeColor=none;shadow=0;align=center;verticalAlign=top;fillColor=#2D9C5E;shape=mxgraph.gcp2.check" vertex="1" parent="1">
                    <mxGeometry x="-12" y="64" width="25" height="20" as="geometry"/>
                </mxCell>
                <mxCell id="542" value="" style="sketch=0;html=1;aspect=fixed;strokeColor=none;shadow=0;align=center;verticalAlign=top;fillColor=#2D9C5E;shape=mxgraph.gcp2.check" vertex="1" parent="1">
                    <mxGeometry x="-12" y="233" width="25" height="20" as="geometry"/>
                </mxCell>
                <mxCell id="543" value="" style="sketch=0;html=1;aspect=fixed;strokeColor=none;shadow=0;align=center;verticalAlign=top;fillColor=#2D9C5E;shape=mxgraph.gcp2.check" vertex="1" parent="1">
                    <mxGeometry x="-12" y="403" width="25" height="20" as="geometry"/>
                </mxCell>
                <mxCell id="544" value="" style="sketch=0;html=1;aspect=fixed;strokeColor=none;shadow=0;align=center;verticalAlign=top;fillColor=#2D9C5E;shape=mxgraph.gcp2.check" vertex="1" parent="1">
                    <mxGeometry x="-12" y="573" width="25" height="20" as="geometry"/>
                </mxCell>
                <mxCell id="545" value="" style="sketch=0;html=1;aspect=fixed;strokeColor=none;shadow=0;align=center;verticalAlign=top;fillColor=#2D9C5E;shape=mxgraph.gcp2.check" vertex="1" parent="1">
                    <mxGeometry x="839" y="283" width="25" height="20" as="geometry"/>
                </mxCell>
                <mxCell id="546" value="" style="sketch=0;html=1;aspect=fixed;strokeColor=none;shadow=0;align=center;verticalAlign=top;fillColor=#2D9C5E;shape=mxgraph.gcp2.check" vertex="1" parent="1">
                    <mxGeometry x="839" y="446" width="25" height="20" as="geometry"/>
                </mxCell>
                <mxCell id="547" value="" style="sketch=0;html=1;aspect=fixed;strokeColor=none;shadow=0;align=center;verticalAlign=top;fillColor=#2D9C5E;shape=mxgraph.gcp2.check" vertex="1" parent="1">
                    <mxGeometry x="839" y="539" width="25" height="20" as="geometry"/>
                </mxCell>
                <mxCell id="548" value="" style="sketch=0;html=1;aspect=fixed;strokeColor=none;shadow=0;align=center;verticalAlign=top;fillColor=#2D9C5E;shape=mxgraph.gcp2.check" vertex="1" parent="1">
                    <mxGeometry x="839" y="681" width="25" height="20" as="geometry"/>
                </mxCell>
                <mxCell id="549" value="" style="sketch=0;html=1;aspect=fixed;strokeColor=none;shadow=0;align=center;verticalAlign=top;fillColor=#2D9C5E;shape=mxgraph.gcp2.check" vertex="1" parent="1">
                    <mxGeometry x="1110" y="654" width="25" height="20" as="geometry"/>
                </mxCell>
                <mxCell id="550" value="" style="sketch=0;html=1;aspect=fixed;strokeColor=none;shadow=0;align=center;verticalAlign=top;fillColor=#2D9C5E;shape=mxgraph.gcp2.check" vertex="1" parent="1">
                    <mxGeometry x="1385" y="631" width="25" height="20" as="geometry"/>
                </mxCell>
                <mxCell id="551" value="" style="sketch=0;html=1;aspect=fixed;strokeColor=none;shadow=0;align=center;verticalAlign=top;fillColor=#2D9C5E;shape=mxgraph.gcp2.check" vertex="1" parent="1">
                    <mxGeometry x="1670" y="589" width="25" height="20" as="geometry"/>
                </mxCell>
                <mxCell id="552" value="" style="sketch=0;html=1;aspect=fixed;strokeColor=none;shadow=0;align=center;verticalAlign=top;fillColor=#2D9C5E;shape=mxgraph.gcp2.check" vertex="1" parent="1">
                    <mxGeometry x="550" y="100" width="25" height="20" as="geometry"/>
                </mxCell>
                <mxCell id="553" value="" style="sketch=0;html=1;aspect=fixed;strokeColor=none;shadow=0;align=center;verticalAlign=top;fillColor=#2D9C5E;shape=mxgraph.gcp2.check" vertex="1" parent="1">
                    <mxGeometry x="550" y="16" width="25" height="20" as="geometry"/>
                </mxCell>
                <mxCell id="554" value="" style="sketch=0;html=1;aspect=fixed;strokeColor=none;shadow=0;align=center;verticalAlign=top;fillColor=#2D9C5E;shape=mxgraph.gcp2.check" vertex="1" parent="1">
                    <mxGeometry x="1119" y="224" width="25" height="20" as="geometry"/>
                </mxCell>
                <mxCell id="555" value="" style="sketch=0;html=1;aspect=fixed;strokeColor=none;shadow=0;align=center;verticalAlign=top;fillColor=#2D9C5E;shape=mxgraph.gcp2.check" vertex="1" parent="1">
                    <mxGeometry x="840" y="172" width="25" height="20" as="geometry"/>
                </mxCell>
                <mxCell id="558" value="" style="sketch=0;html=1;aspect=fixed;strokeColor=none;shadow=0;align=center;verticalAlign=top;fillColor=#2D9C5E;shape=mxgraph.gcp2.check" vertex="1" parent="1">
                    <mxGeometry x="1550.5" y="1" width="25" height="20" as="geometry"/>
                </mxCell>
                <mxCell id="560" value="" style="sketch=0;html=1;aspect=fixed;strokeColor=none;shadow=0;align=center;verticalAlign=top;fillColor=#2D9C5E;shape=mxgraph.gcp2.check" vertex="1" parent="1">
                    <mxGeometry x="1830" y="106" width="25" height="20" as="geometry"/>
                </mxCell>
                <mxCell id="561" value="" style="sketch=0;html=1;aspect=fixed;strokeColor=none;shadow=0;align=center;verticalAlign=top;fillColor=#2D9C5E;shape=mxgraph.gcp2.check" vertex="1" parent="1">
                    <mxGeometry x="1830" y="196" width="25" height="20" as="geometry"/>
                </mxCell>
                <mxCell id="562" value="" style="sketch=0;html=1;aspect=fixed;strokeColor=none;shadow=0;align=center;verticalAlign=top;fillColor=#2D9C5E;shape=mxgraph.gcp2.check" vertex="1" parent="1">
                    <mxGeometry x="1832" y="285" width="25" height="20" as="geometry"/>
                </mxCell>
                <mxCell id="563" value="" style="sketch=0;html=1;aspect=fixed;strokeColor=none;shadow=0;align=center;verticalAlign=top;fillColor=#2D9C5E;shape=mxgraph.gcp2.check" vertex="1" parent="1">
                    <mxGeometry x="2099" y="117" width="25" height="20" as="geometry"/>
                </mxCell>
                <mxCell id="564" value="" style="sketch=0;html=1;aspect=fixed;strokeColor=none;shadow=0;align=center;verticalAlign=top;fillColor=#2D9C5E;shape=mxgraph.gcp2.check" vertex="1" parent="1">
                    <mxGeometry x="1120" y="-24" width="25" height="20" as="geometry"/>
                </mxCell>
                <mxCell id="565" value="" style="sketch=0;html=1;aspect=fixed;strokeColor=none;shadow=0;align=center;verticalAlign=top;fillColor=#2D9C5E;shape=mxgraph.gcp2.check" vertex="1" parent="1">
                    <mxGeometry x="1121" y="322" width="25" height="20" as="geometry"/>
                </mxCell>
                <mxCell id="566" value="" style="sketch=0;html=1;aspect=fixed;strokeColor=none;shadow=0;align=center;verticalAlign=top;fillColor=#2D9C5E;shape=mxgraph.gcp2.check" vertex="1" parent="1">
                    <mxGeometry x="1411" y="389" width="25" height="20" as="geometry"/>
                </mxCell>
                <mxCell id="567" value="" style="sketch=0;html=1;aspect=fixed;strokeColor=none;shadow=0;align=center;verticalAlign=top;fillColor=#2D9C5E;shape=mxgraph.gcp2.check" vertex="1" parent="1">
                    <mxGeometry x="2100" y="-27" width="25" height="20" as="geometry"/>
                </mxCell>
                <mxCell id="568" value="" style="sketch=0;html=1;aspect=fixed;strokeColor=none;shadow=0;align=center;verticalAlign=top;fillColor=#2D9C5E;shape=mxgraph.gcp2.check" vertex="1" parent="1">
                    <mxGeometry x="1830" y="-47" width="25" height="20" as="geometry"/>
                </mxCell>
                <mxCell id="569" value="" style="sketch=0;html=1;aspect=fixed;strokeColor=none;shadow=0;align=center;verticalAlign=top;fillColor=#2D9C5E;shape=mxgraph.gcp2.check" vertex="1" parent="1">
                    <mxGeometry x="2370" y="-50" width="25" height="20" as="geometry"/>
                </mxCell>
                <mxCell id="570" value="" style="sketch=0;html=1;aspect=fixed;strokeColor=none;shadow=0;align=center;verticalAlign=top;fillColor=#2D9C5E;shape=mxgraph.gcp2.check" vertex="1" parent="1">
                    <mxGeometry x="2640" y="31" width="25" height="20" as="geometry"/>
                </mxCell>
                <mxCell id="571" value="" style="sketch=0;html=1;aspect=fixed;strokeColor=none;shadow=0;align=center;verticalAlign=top;fillColor=#2D9C5E;shape=mxgraph.gcp2.check" vertex="1" parent="1">
                    <mxGeometry x="839" y="-404" width="25" height="20" as="geometry"/>
                </mxCell>
                <mxCell id="572" value="" style="sketch=0;html=1;aspect=fixed;strokeColor=none;shadow=0;align=center;verticalAlign=top;fillColor=#2D9C5E;shape=mxgraph.gcp2.check" vertex="1" parent="1">
                    <mxGeometry x="1125" y="-257" width="25" height="20" as="geometry"/>
                </mxCell>
                <mxCell id="573" value="" style="sketch=0;html=1;aspect=fixed;strokeColor=none;shadow=0;align=center;verticalAlign=top;fillColor=#2D9C5E;shape=mxgraph.gcp2.check" vertex="1" parent="1">
                    <mxGeometry x="1125" y="-602" width="25" height="20" as="geometry"/>
                </mxCell>
                <mxCell id="574" value="" style="sketch=0;html=1;aspect=fixed;strokeColor=none;shadow=0;align=center;verticalAlign=top;fillColor=#2D9C5E;shape=mxgraph.gcp2.check" vertex="1" parent="1">
                    <mxGeometry x="1126" y="-431" width="25" height="20" as="geometry"/>
                </mxCell>
                <mxCell id="576" value="" style="sketch=0;html=1;aspect=fixed;strokeColor=none;shadow=0;align=center;verticalAlign=top;fillColor=#2D9C5E;shape=mxgraph.gcp2.check" vertex="1" parent="1">
                    <mxGeometry x="1511" y="-280" width="25" height="20" as="geometry"/>
                </mxCell>
                <mxCell id="577" value="" style="sketch=0;html=1;aspect=fixed;strokeColor=none;shadow=0;align=center;verticalAlign=top;fillColor=#2D9C5E;shape=mxgraph.gcp2.check" vertex="1" parent="1">
                    <mxGeometry x="1511" y="-453" width="25" height="20" as="geometry"/>
                </mxCell>
                <mxCell id="578" value="" style="sketch=0;html=1;aspect=fixed;strokeColor=none;shadow=0;align=center;verticalAlign=top;fillColor=#2D9C5E;shape=mxgraph.gcp2.check" vertex="1" parent="1">
                    <mxGeometry x="1941" y="-309" width="25" height="20" as="geometry"/>
                </mxCell>
                <mxCell id="579" value="KinshipType" style="swimlane;fontStyle=0;childLayout=stackLayout;horizontal=1;startSize=26;fillColor=#ffcd28;horizontalStack=0;resizeParent=1;resizeParentMax=0;resizeLast=0;collapsible=1;marginBottom=0;strokeColor=#d79b00;gradientColor=#ffa500;" vertex="1" parent="1">
                    <mxGeometry x="320" y="-150" width="240" height="78" as="geometry"/>
                </mxCell>
                <mxCell id="580" value="KinshipTypeID" style="text;strokeColor=#36393d;fillColor=#ffcc99;align=left;verticalAlign=top;spacingLeft=4;spacingRight=4;overflow=hidden;rotatable=0;points=[[0,0.5],[1,0.5]];portConstraint=eastwest;fontColor=#000000;" vertex="1" parent="579">
                    <mxGeometry y="26" width="240" height="26" as="geometry"/>
                </mxCell>
                <mxCell id="583" value="KinshipType" style="text;strokeColor=#36393d;fillColor=#ffcc99;align=left;verticalAlign=top;spacingLeft=4;spacingRight=4;overflow=hidden;rotatable=0;points=[[0,0.5],[1,0.5]];portConstraint=eastwest;fontColor=#000000;" vertex="1" parent="579">
                    <mxGeometry y="52" width="240" height="26" as="geometry"/>
                </mxCell>
                <mxCell id="585" style="edgeStyle=orthogonalEdgeStyle;html=1;entryX=0;entryY=0.5;entryDx=0;entryDy=0;" edge="1" parent="1" target="363">
                    <mxGeometry relative="1" as="geometry">
                        <mxPoint x="560" y="-113" as="sourcePoint"/>
                        <Array as="points">
                            <mxPoint x="560" y="-113"/>
                        </Array>
                    </mxGeometry>
                </mxCell>
                <mxCell id="586" value="" style="sketch=0;html=1;aspect=fixed;strokeColor=none;shadow=0;align=center;verticalAlign=top;fillColor=#2D9C5E;shape=mxgraph.gcp2.check" vertex="1" parent="1">
                    <mxGeometry x="840" y="-230" width="25" height="20" as="geometry"/>
                </mxCell>
                <mxCell id="587" value="" style="sketch=0;html=1;aspect=fixed;strokeColor=none;shadow=0;align=center;verticalAlign=top;fillColor=#2D9C5E;shape=mxgraph.gcp2.check" vertex="1" parent="1">
                    <mxGeometry x="839" y="-69" width="25" height="20" as="geometry"/>
                </mxCell>
                <mxCell id="588" value="" style="sketch=0;html=1;aspect=fixed;strokeColor=none;shadow=0;align=center;verticalAlign=top;fillColor=#2D9C5E;shape=mxgraph.gcp2.check" vertex="1" parent="1">
                    <mxGeometry x="840" y="54" width="25" height="20" as="geometry"/>
                </mxCell>
                <mxCell id="589" value="" style="sketch=0;html=1;aspect=fixed;strokeColor=none;shadow=0;align=center;verticalAlign=top;fillColor=#2D9C5E;shape=mxgraph.gcp2.check" vertex="1" parent="1">
                    <mxGeometry x="550" y="-150" width="25" height="20" as="geometry"/>
                </mxCell>
                <mxCell id="590" value="" style="sketch=0;html=1;aspect=fixed;strokeColor=none;shadow=0;align=center;verticalAlign=top;fillColor=#2D9C5E;shape=mxgraph.gcp2.check" vertex="1" parent="1">
                    <mxGeometry x="2220" y="-284" width="25" height="20" as="geometry"/>
                </mxCell>
                <mxCell id="591" value="ContactType" style="swimlane;fontStyle=0;childLayout=stackLayout;horizontal=1;startSize=26;fillColor=#f8cecc;horizontalStack=0;resizeParent=1;resizeParentMax=0;resizeLast=0;collapsible=1;marginBottom=0;strokeColor=#b85450;gradientColor=#ea6b66;" vertex="1" parent="1">
                    <mxGeometry x="40" y="730" width="240" height="78" as="geometry"/>
                </mxCell>
                <mxCell id="592" value="ContactTypeID" style="text;strokeColor=#36393d;fillColor=#ffcc99;align=left;verticalAlign=top;spacingLeft=4;spacingRight=4;overflow=hidden;rotatable=0;points=[[0,0.5],[1,0.5]];portConstraint=eastwest;fontColor=#000000;" vertex="1" parent="591">
                    <mxGeometry y="26" width="240" height="26" as="geometry"/>
                </mxCell>
                <mxCell id="593" value="ContactType" style="text;strokeColor=#36393d;fillColor=#ffcc99;align=left;verticalAlign=top;spacingLeft=4;spacingRight=4;overflow=hidden;rotatable=0;points=[[0,0.5],[1,0.5]];portConstraint=eastwest;fontColor=#000000;" vertex="1" parent="591">
                    <mxGeometry y="52" width="240" height="26" as="geometry"/>
                </mxCell>
                <mxCell id="601" style="edgeStyle=orthogonalEdgeStyle;html=1;entryX=1;entryY=0.5;entryDx=0;entryDy=0;" edge="1" parent="1" source="54" target="96">
                    <mxGeometry relative="1" as="geometry">
                        <Array as="points">
                            <mxPoint x="30" y="625"/>
                            <mxPoint x="30" y="638"/>
                        </Array>
                    </mxGeometry>
                </mxCell>
                <mxCell id="602" value="" style="sketch=0;html=1;aspect=fixed;strokeColor=none;shadow=0;align=center;verticalAlign=top;fillColor=#2D9C5E;shape=mxgraph.gcp2.check" vertex="1" parent="1">
                    <mxGeometry x="271" y="732" width="25" height="20" as="geometry"/>
                </mxCell>
                <mxCell id="603" style="edgeStyle=orthogonalEdgeStyle;html=1;entryX=0;entryY=0.5;entryDx=0;entryDy=0;" edge="1" parent="1" source="592" target="595">
                    <mxGeometry relative="1" as="geometry"/>
                </mxCell>
                <mxCell id="604" style="edgeStyle=orthogonalEdgeStyle;html=1;entryX=0;entryY=0.5;entryDx=0;entryDy=0;" edge="1" parent="1" source="592" target="596">
                    <mxGeometry relative="1" as="geometry">
                        <Array as="points">
                            <mxPoint x="20" y="769"/>
                            <mxPoint x="20" y="560"/>
                        </Array>
                    </mxGeometry>
                </mxCell>
                <mxCell id="605" style="edgeStyle=orthogonalEdgeStyle;html=1;entryX=0;entryY=0.5;entryDx=0;entryDy=0;" edge="1" parent="1" source="592" target="597">
                    <mxGeometry relative="1" as="geometry">
                        <Array as="points">
                            <mxPoint x="20" y="769"/>
                            <mxPoint x="20" y="387"/>
                        </Array>
                    </mxGeometry>
                </mxCell>
                <mxCell id="607" style="edgeStyle=orthogonalEdgeStyle;html=1;entryX=0;entryY=0.5;entryDx=0;entryDy=0;" edge="1" parent="1" source="592" target="598">
                    <mxGeometry relative="1" as="geometry">
                        <Array as="points">
                            <mxPoint x="20" y="769"/>
                            <mxPoint x="20" y="240"/>
                        </Array>
                    </mxGeometry>
                </mxCell>
            </root>
        </mxGraphModel>
    </diagram>
</mxfile>